<svg xmlns="http://www.w3.org/2000/svg" height="512ptpx" version="1.1" viewBox="0 0 512 512" width="512ptpx" transform="rotate(0) scale(1, 1)">
<path d="M 0.00 0.00 L 512.00 0.00 L 512.00 512.00 L 0.00 512.00 L 0.00 0.00 Z" fill="#395144" opacity="1.00" stroke="#395144" stroke-width="0.25"/>
<path d="M 82.50 5.63 C 90.45 1.07 100.85 2.58 108.15 7.75 C 111.95 10.28 113.14 14.99 114.35 19.11 C 116.01 25.78 117.30 32.73 116.51 39.62 C 116.35 43.50 110.05 43.31 109.65 39.56 C 108.50 31.80 108.99 23.75 106.29 16.27 C 103.69 13.89 100.60 11.87 96.96 11.70 C 92.06 11.14 87.96 14.84 85.79 18.88 C 84.48 21.42 85.89 24.36 85.15 27.00 C 83.80 27.71 82.34 28.41 80.77 28.29 C 76.98 26.42 75.98 21.85 75.68 17.99 C 75.16 12.97 78.17 8.05 82.50 5.63 Z" fill="#f9f9f9" opacity="1.00" stroke="#f9f9f9" stroke-width="0.25"/>
<path d="M 393.89 10.86 C 396.51 6.35 401.92 4.15 406.99 4.31 C 416.17 3.60 426.08 8.44 429.69 17.19 C 433.32 27.67 427.67 40.38 417.52 44.80 C 410.74 47.98 406.57 54.51 400.59 58.76 C 394.46 63.32 387.52 66.63 380.46 69.47 C 376.62 70.89 372.85 73.64 372.07 77.91 C 371.11 82.50 371.81 88.47 376.23 91.09 C 380.57 93.20 385.38 89.17 389.54 91.66 C 389.43 94.18 390.28 97.29 387.96 99.08 C 381.34 105.48 368.34 102.04 365.25 93.46 C 362.90 87.84 362.88 81.48 363.77 75.54 C 364.83 69.86 369.59 65.72 374.84 63.83 C 388.01 58.53 401.97 51.58 408.77 38.38 C 411.03 38.05 413.37 38.02 415.58 37.37 C 420.16 34.63 423.52 29.46 422.91 23.97 C 423.38 18.61 419.31 13.64 414.14 12.59 C 409.32 11.53 403.23 11.82 400.16 16.25 C 396.33 23.72 398.21 32.79 394.48 40.31 C 390.60 47.08 382.93 50.03 376.09 52.85 C 369.74 55.67 363.23 58.17 356.44 59.66 C 354.21 60.15 351.92 59.89 349.70 59.55 C 347.75 53.55 347.68 47.14 345.71 41.15 C 343.60 34.69 341.62 27.97 337.60 22.39 C 334.44 17.93 328.63 17.47 323.87 15.83 C 313.75 11.92 302.19 12.27 292.10 16.10 C 287.40 17.85 282.34 16.74 277.47 17.21 C 277.52 15.38 277.21 13.14 279.05 12.01 C 283.10 9.54 287.95 8.99 292.46 7.75 C 306.15 4.71 321.08 4.20 334.18 9.88 C 340.90 12.71 345.83 18.55 349.03 24.94 C 352.80 32.67 353.65 41.37 356.63 49.37 C 357.24 49.65 358.46 50.22 359.06 50.51 C 367.60 48.29 376.10 45.31 383.40 40.27 C 386.54 38.11 388.90 34.75 389.35 30.91 C 390.06 24.12 390.30 16.89 393.89 10.86 Z" fill="#f9f9f9" opacity="1.00" stroke="#f9f9f9" stroke-width="0.25"/>
<path d="M 169.38 9.60 C 177.51 6.33 186.44 5.84 195.10 6.30 C 202.42 6.55 209.02 10.39 214.63 14.82 C 215.54 18.09 213.89 22.07 209.94 21.62 C 207.73 20.30 206.08 18.23 203.84 16.94 C 199.15 13.97 193.34 14.77 188.06 14.69 C 179.64 15.34 170.57 17.10 164.33 23.27 C 155.36 31.13 151.91 43.48 152.30 55.06 C 152.39 58.00 152.96 60.95 152.50 63.88 C 151.51 65.65 149.36 65.27 147.68 65.61 C 144.76 64.06 144.00 61.02 144.15 57.92 C 131.75 58.03 119.46 55.93 107.08 55.76 C 104.77 55.93 101.88 56.19 100.63 58.47 C 98.30 62.80 97.24 67.66 95.19 72.11 C 92.68 78.12 88.75 83.51 83.67 87.60 C 79.66 91.02 75.52 96.28 69.55 94.57 C 69.52 92.66 69.35 90.73 69.75 88.84 C 72.65 85.95 76.76 84.69 79.63 81.75 C 85.07 76.86 87.50 69.79 90.24 63.23 C 92.05 58.90 93.09 54.02 96.40 50.51 C 99.27 48.75 102.72 48.46 106.00 48.25 C 112.18 47.93 118.36 48.30 124.53 48.71 C 131.00 49.17 137.48 50.47 143.98 49.67 C 145.50 41.25 146.38 32.43 150.82 24.92 C 154.79 17.70 161.62 12.27 169.38 9.60 Z" fill="#f9f9f9" opacity="1.00" stroke="#f9f9f9" stroke-width="0.25"/>
<path d="M 12.19 7.25 C 17.58 5.91 23.39 9.35 25.40 14.40 C 26.04 16.96 25.46 19.61 25.43 22.21 C 27.11 20.66 28.22 17.59 31.02 18.11 C 37.47 19.65 38.37 29.62 33.01 33.06 C 29.89 35.31 25.78 34.26 22.35 33.47 C 22.64 32.07 22.96 30.69 23.30 29.30 C 23.01 29.19 22.44 28.95 22.15 28.83 C 19.14 30.07 16.27 28.57 13.81 26.88 C 13.83 33.57 13.02 40.30 14.46 46.91 C 15.26 54.14 17.40 61.94 23.54 66.48 C 30.82 71.73 40.39 71.81 48.85 70.02 C 53.92 68.80 59.13 66.87 62.64 62.83 C 67.61 57.28 68.06 49.39 71.90 43.19 C 73.16 43.25 74.41 43.31 75.67 43.37 C 76.86 47.55 75.47 51.82 74.42 55.88 C 72.25 63.45 67.57 70.82 60.17 74.13 C 51.84 78.39 42.16 78.17 33.09 77.49 C 26.16 76.06 18.98 73.14 14.75 67.18 C 11.40 63.00 9.22 58.01 8.09 52.80 C 5.82 42.63 4.09 32.34 2.73 22.01 C 1.69 15.72 5.76 8.58 12.19 7.25 Z" fill="#f9f9f9" opacity="1.00" stroke="#f9f9f9" stroke-width="0.25"/>
<path d="M 491.77 9.74 C 496.91 8.03 503.63 10.02 505.86 15.28 C 507.74 19.95 506.88 25.12 506.73 30.01 C 506.35 39.93 504.63 49.83 501.29 59.19 C 498.49 66.63 493.19 73.63 485.41 76.24 C 475.25 79.28 464.19 76.82 455.02 71.94 C 447.69 67.47 440.90 60.77 439.15 52.06 C 437.56 43.78 436.87 34.92 440.01 26.91 C 441.98 22.02 443.52 16.85 446.50 12.46 C 447.48 10.81 449.24 10.05 450.95 9.37 C 451.63 9.75 452.98 10.51 453.66 10.89 C 454.47 16.38 450.75 20.85 448.45 25.46 C 443.26 35.16 442.84 47.78 448.78 57.25 C 452.77 63.00 458.72 67.25 465.22 69.75 C 473.73 72.21 484.40 72.01 490.65 64.81 C 496.49 57.68 497.45 48.08 499.86 39.48 C 495.79 41.56 490.98 41.19 487.02 39.08 C 480.65 36.32 475.37 29.98 475.67 22.79 C 476.08 20.38 479.57 20.79 481.09 21.94 C 483.79 25.36 484.10 30.56 488.23 32.85 C 490.31 34.57 493.02 34.76 495.61 34.78 C 495.85 33.00 496.11 31.23 496.34 29.45 C 492.37 29.24 488.31 27.32 486.62 23.56 C 484.71 18.60 486.94 12.14 491.77 9.74 Z" fill="#f9f9f9" opacity="1.00" stroke="#f9f9f9" stroke-width="0.25"/>
<path d="M 242.70 10.84 C 254.36 6.29 267.60 13.65 272.63 24.45 C 275.56 31.97 273.49 41.01 267.62 46.55 C 259.61 55.53 244.19 54.22 236.43 45.59 C 231.21 40.29 229.89 32.14 231.56 25.09 C 232.58 18.88 236.69 13.06 242.70 10.84 Z" fill="#f9f9f9" opacity="1.00" stroke="#f9f9f9" stroke-width="0.25"/>
<path d="M 462.49 17.52 C 463.99 15.51 466.53 17.14 467.68 18.64 C 466.45 22.97 463.45 26.35 461.00 29.99 C 458.37 33.52 460.12 38.33 462.53 41.47 C 463.62 43.19 466.55 43.24 467.60 41.46 C 468.94 39.38 469.52 36.89 470.88 34.80 C 473.87 37.16 476.05 41.89 473.19 45.18 C 468.26 50.26 458.67 48.95 455.11 42.86 C 452.59 39.40 452.28 34.82 453.58 30.84 C 454.80 25.40 459.38 21.86 462.49 17.52 Z" fill="#f9f9f9" opacity="1.00" stroke="#f9f9f9" stroke-width="0.25"/>
<path d="M 248.80 19.91 C 257.19 16.78 267.19 25.29 265.83 34.09 C 265.66 36.90 264.06 39.35 262.33 41.48 C 259.16 45.06 253.78 45.64 249.42 44.29 C 240.31 39.81 240.25 24.95 248.80 19.91 Z" fill="#395144" opacity="1.00" stroke="#395144" stroke-width="0.25"/>
<path d="M 45.72 26.01 C 44.48 23.90 44.75 21.68 45.68 19.51 C 51.98 18.48 56.97 23.00 62.06 25.91 C 68.31 29.35 68.40 37.95 66.27 43.90 C 64.00 49.26 61.57 55.14 56.41 58.34 C 50.32 61.99 42.95 63.30 35.93 62.67 C 31.55 62.31 27.51 59.55 25.61 55.60 C 25.32 53.90 25.45 52.17 25.49 50.45 C 26.98 50.38 28.47 50.33 29.97 50.35 C 32.31 53.73 35.88 56.35 39.99 57.03 C 50.57 57.74 60.19 48.39 60.51 37.94 C 60.58 35.50 59.95 32.64 57.67 31.33 C 54.01 28.90 49.84 27.43 45.72 26.01 Z" fill="#f9f9f9" opacity="1.00" stroke="#f9f9f9" stroke-width="0.25"/>
<path d="M 180.53 22.19 C 186.17 18.96 192.77 19.45 199.01 19.70 C 200.90 19.74 202.77 20.58 204.02 22.01 C 211.58 32.14 216.79 45.20 213.51 57.94 C 211.66 66.82 203.68 72.92 195.47 75.66 C 190.84 77.37 185.79 76.27 181.05 77.40 C 179.64 80.21 176.83 81.18 173.87 80.26 C 169.86 75.26 171.53 67.18 177.06 64.08 C 180.73 62.60 183.82 65.73 186.91 67.17 C 192.44 68.57 198.40 66.16 202.33 62.24 C 206.95 57.19 207.25 49.66 206.01 43.27 C 204.31 36.05 201.17 28.42 194.81 24.12 C 190.19 22.79 185.10 24.10 180.53 22.19 Z" fill="#f9f9f9" opacity="1.00" stroke="#f9f9f9" stroke-width="0.25"/>
<path d="M 296.36 20.59 C 304.77 19.23 313.46 19.91 321.54 22.63 C 322.37 24.63 322.10 26.75 321.53 28.78 C 317.25 28.97 313.28 27.14 309.09 26.62 C 305.57 26.02 301.99 26.20 298.45 26.53 C 296.37 25.12 295.72 22.99 296.36 20.59 Z" fill="#f9f9f9" opacity="1.00" stroke="#f9f9f9" stroke-width="0.25"/>
<path d="M 408.44 28.74 C 406.63 25.52 408.62 19.78 412.94 20.53 C 416.88 20.78 416.60 25.42 416.23 28.26 C 413.78 29.06 410.78 30.60 408.44 28.74 Z" fill="#f9f9f9" opacity="1.00" stroke="#f9f9f9" stroke-width="0.25"/>
<path d="M 87.01 34.85 C 87.68 31.83 90.16 29.65 92.89 28.44 C 95.17 29.25 97.72 29.98 99.13 32.11 C 100.63 35.77 96.19 38.63 92.96 38.10 C 90.75 37.70 88.00 37.16 87.01 34.85 Z" fill="#f9f9f9" opacity="1.00" stroke="#f9f9f9" stroke-width="0.25"/>
<path d="M 249.74 29.40 C 253.16 30.06 256.62 31.21 258.95 33.96 C 256.91 37.58 251.75 37.85 248.98 34.99 C 247.61 33.22 248.76 31.04 249.74 29.40 Z" fill="#f9f9f9" opacity="1.00" stroke="#f9f9f9" stroke-width="0.25"/>
<path d="M 171.94 37.22 C 176.84 32.34 184.52 31.23 191.01 32.98 C 194.45 34.07 198.23 35.91 199.56 39.54 C 202.69 47.61 196.69 57.96 188.08 59.13 C 183.22 59.22 178.01 56.53 175.98 51.97 C 174.36 47.61 175.80 42.90 177.48 38.79 C 175.61 38.38 173.61 38.25 171.94 37.22 Z" fill="#f9f9f9" opacity="1.00" stroke="#f9f9f9" stroke-width="0.25"/>
<path d="M 294.17 37.26 C 296.01 34.24 299.98 30.71 303.63 32.45 C 303.93 34.45 302.37 36.01 301.71 37.77 C 299.14 43.13 300.54 50.82 306.07 53.72 C 312.19 55.46 316.34 47.27 313.55 42.38 C 313.18 42.48 312.45 42.67 312.09 42.77 C 310.79 43.78 309.47 44.75 308.13 45.69 C 307.48 45.32 306.16 44.57 305.50 44.19 C 305.18 42.76 304.81 41.33 304.64 39.86 C 305.71 36.72 308.33 34.51 310.75 32.39 C 320.86 34.25 324.94 47.95 318.69 55.62 C 316.21 58.37 312.76 60.60 308.96 60.71 C 297.40 61.96 288.08 47.20 294.17 37.26 Z" fill="#f9f9f9" opacity="1.00" stroke="#f9f9f9" stroke-width="0.25"/>
<path d="M 36.34 47.22 C 35.65 42.57 37.23 37.16 41.02 34.37 C 43.79 36.65 41.22 40.93 43.64 43.38 C 45.03 45.12 47.78 44.42 49.07 42.89 C 50.59 41.05 50.47 38.56 50.83 36.34 C 53.02 36.68 55.95 36.67 56.90 39.13 C 58.74 43.16 55.48 47.50 51.82 49.11 C 46.90 52.31 40.98 49.62 36.34 47.22 Z" fill="#f9f9f9" opacity="1.00" stroke="#f9f9f9" stroke-width="0.25"/>
<path d="M 182.89 39.50 C 186.70 39.45 190.50 40.62 193.54 42.93 C 195.48 45.28 192.65 47.62 191.57 49.66 C 190.19 51.90 186.60 54.23 184.52 51.57 C 181.07 48.50 181.73 43.47 182.89 39.50 Z" fill="#395144" opacity="1.00" stroke="#395144" stroke-width="0.25"/>
<path d="M 277.54 45.75 C 278.18 45.49 279.44 44.98 280.08 44.72 C 280.64 44.98 281.78 45.49 282.34 45.75 C 282.97 47.44 283.79 49.13 283.60 51.00 C 283.24 57.29 284.08 63.71 282.44 69.87 C 280.94 69.73 279.45 69.59 277.96 69.43 C 275.88 63.52 276.09 57.19 276.14 51.02 C 276.03 49.14 276.74 47.40 277.54 45.75 Z" fill="#f9f9f9" opacity="1.00" stroke="#f9f9f9" stroke-width="0.25"/>
<path d="M 474.94 55.51 C 480.21 54.52 482.51 49.25 484.92 45.10 C 486.68 45.48 488.67 45.97 489.42 47.85 C 488.71 52.84 486.87 58.44 482.16 61.01 C 475.41 64.71 466.88 63.36 460.55 59.42 C 457.63 57.66 456.01 54.50 455.31 51.25 C 462.06 51.71 467.89 57.15 474.94 55.51 Z" fill="#f9f9f9" opacity="1.00" stroke="#f9f9f9" stroke-width="0.25"/>
<path d="M 158.41 54.98 C 158.44 52.10 157.69 48.11 161.32 47.19 C 162.51 51.24 163.32 55.51 162.61 59.73 C 160.20 59.41 158.45 57.38 158.41 54.98 Z" fill="#f9f9f9" opacity="1.00" stroke="#f9f9f9" stroke-width="0.25"/>
<path d="M 334.36 51.81 C 336.66 49.91 339.66 50.33 341.09 53.04 C 343.55 58.69 343.23 65.07 343.87 71.09 C 344.51 74.21 345.88 77.11 347.09 80.04 C 348.09 83.05 352.52 83.04 353.13 86.36 C 354.65 91.73 355.78 97.32 358.69 102.17 C 364.65 112.72 374.95 119.70 385.00 125.97 C 397.34 133.66 409.32 142.07 419.90 152.09 C 427.92 160.31 435.55 169.36 439.60 180.27 C 438.70 181.59 437.70 183.02 435.86 182.62 C 432.96 180.30 431.25 176.93 429.08 173.99 C 419.38 159.79 405.39 149.39 391.77 139.24 C 383.32 132.84 373.66 128.28 365.39 121.64 C 358.58 116.60 353.09 109.76 349.82 101.93 C 348.15 98.04 347.00 93.95 345.35 90.05 C 342.32 87.31 339.99 83.83 338.50 80.03 C 337.07 76.22 337.80 72.08 337.33 68.12 C 336.95 62.57 334.56 57.39 334.36 51.81 Z" fill="#f9f9f9" opacity="1.00" stroke="#f9f9f9" stroke-width="0.25"/>
<path d="M 414.49 58.55 C 416.20 57.49 417.29 59.50 418.43 60.46 C 423.08 65.56 428.31 70.24 432.06 76.08 C 432.14 76.85 432.29 78.38 432.37 79.15 C 424.22 78.20 418.34 71.46 413.72 65.24 C 411.86 63.33 411.91 59.76 414.49 58.55 Z" fill="#f9f9f9" opacity="1.00" stroke="#f9f9f9" stroke-width="0.25"/>
<path d="M 158.55 63.50 C 160.34 62.39 162.40 63.23 164.28 63.57 C 164.49 69.07 163.46 74.56 164.14 80.04 C 164.63 85.32 164.30 90.92 161.55 95.60 C 158.53 100.70 154.09 104.75 149.84 108.80 C 142.12 115.83 134.11 122.54 125.76 128.80 C 111.94 140.26 98.71 152.83 89.21 168.21 C 83.76 175.59 80.61 184.54 74.06 191.09 C 73.31 193.60 73.84 196.72 71.63 198.60 C 69.30 199.35 66.45 198.27 65.41 196.04 C 65.07 193.72 66.52 191.76 67.52 189.81 C 78.08 170.37 90.23 151.56 105.74 135.68 C 115.01 126.50 125.80 119.11 135.68 110.65 C 141.43 105.39 147.02 99.93 151.93 93.87 C 157.03 87.46 156.67 78.67 155.82 70.98 C 155.60 68.34 155.82 64.81 158.55 63.50 Z" fill="#f9f9f9" opacity="1.00" stroke="#f9f9f9" stroke-width="0.25"/>
<path d="M 111.01 69.97 C 113.41 66.98 117.27 65.34 121.07 65.37 C 126.95 65.31 132.69 66.84 138.43 67.97 C 138.50 69.74 138.50 71.51 138.41 73.29 C 133.01 74.54 127.46 73.50 122.00 73.96 C 119.42 74.16 116.69 74.99 115.05 77.12 C 109.18 84.25 104.29 92.23 97.54 98.61 C 91.78 104.16 85.69 109.43 78.71 113.40 C 75.29 112.42 72.03 108.14 74.98 104.99 C 78.79 101.97 83.44 100.23 87.40 97.41 C 92.94 93.38 98.00 88.61 101.99 83.02 C 105.20 78.81 107.60 74.03 111.01 69.97 Z" fill="#f9f9f9" opacity="1.00" stroke="#f9f9f9" stroke-width="0.25"/>
<path d="M 319.77 76.02 C 319.50 73.42 322.20 71.04 324.68 72.43 C 327.45 74.26 327.00 77.98 327.83 80.82 C 328.58 86.79 333.63 91.59 332.53 97.89 C 326.56 91.87 320.65 84.78 319.77 76.02 Z" fill="#f9f9f9" opacity="1.00" stroke="#f9f9f9" stroke-width="0.25"/>
<path d="M 27.43 87.42 C 31.75 83.09 38.27 83.04 43.97 82.85 C 50.98 82.67 58.98 85.05 62.54 91.57 C 65.49 96.19 65.45 102.02 64.10 107.17 C 62.54 112.99 59.74 118.41 56.44 123.42 C 55.47 125.00 53.70 125.69 52.15 126.52 C 51.35 126.22 49.75 125.62 48.95 125.32 C 49.20 123.59 49.12 121.71 50.17 120.22 C 53.48 114.93 56.54 109.22 57.35 102.95 C 58.13 96.42 53.04 89.00 46.04 89.19 C 41.03 88.38 36.44 91.00 31.50 90.99 C 29.01 98.29 29.27 108.11 35.57 113.49 C 38.30 116.05 42.22 115.18 45.59 115.63 C 46.89 116.75 46.35 118.62 46.64 120.12 C 42.26 122.30 36.92 122.40 32.34 120.82 C 21.54 113.93 18.84 97.10 27.43 87.42 Z" fill="#f9f9f9" opacity="1.00" stroke="#f9f9f9" stroke-width="0.25"/>
<path d="M 458.55 83.76 C 465.04 82.12 472.04 82.59 478.24 85.11 C 485.68 88.13 490.81 96.02 490.53 104.05 C 490.66 110.75 489.20 118.26 483.79 122.76 C 479.56 126.51 473.47 129.00 467.89 126.96 C 464.92 125.98 463.23 122.99 462.66 120.08 C 463.88 118.22 466.19 118.90 468.06 118.67 C 472.51 118.71 476.44 115.48 478.44 111.70 C 480.13 106.49 479.55 100.23 475.98 95.91 C 469.97 88.91 457.64 90.11 452.22 97.25 C 448.98 101.33 449.84 107.10 451.63 111.61 C 453.25 115.88 457.06 118.60 460.17 121.71 C 462.36 123.85 461.89 127.16 462.41 129.94 C 463.20 135.54 464.16 141.67 467.93 146.12 C 470.94 146.29 474.84 145.18 476.93 148.08 C 480.58 152.14 476.03 159.06 470.91 158.23 C 464.72 157.28 459.92 151.98 458.41 146.08 C 456.48 140.90 457.48 134.96 455.06 129.98 C 447.35 123.74 441.48 114.23 441.97 104.04 C 442.31 94.60 449.67 86.35 458.55 83.76 Z" fill="#f9f9f9" opacity="1.00" stroke="#f9f9f9" stroke-width="0.25"/>
<path d="M 127.76 85.82 C 130.67 83.62 134.64 83.89 137.64 85.76 C 137.55 87.15 137.36 88.53 137.08 89.89 C 135.55 92.57 132.52 93.81 130.47 96.02 C 129.01 99.06 130.35 103.19 127.62 105.60 C 126.14 107.08 124.14 105.79 122.49 105.46 C 122.00 102.38 122.36 99.29 122.67 96.22 C 118.41 98.68 113.14 100.08 110.31 104.42 C 106.62 109.64 102.65 114.65 98.68 119.66 C 93.84 125.74 88.09 131.15 84.20 137.95 C 86.53 125.73 93.77 115.39 99.83 104.79 C 102.80 100.01 105.58 94.74 110.48 91.64 C 115.70 88.17 122.59 89.44 127.76 85.82 Z" fill="#f9f9f9" opacity="1.00" stroke="#f9f9f9" stroke-width="0.25"/>
<path d="M 399.71 87.12 C 399.75 84.12 403.58 82.49 405.84 84.43 C 410.33 87.38 414.04 91.34 417.92 95.03 C 428.65 105.38 437.67 117.56 443.87 131.14 C 445.61 135.23 447.01 139.58 447.16 144.06 C 446.83 147.20 442.73 148.53 443.21 151.90 C 443.05 160.65 449.62 167.60 450.82 176.06 C 444.08 169.58 438.52 161.79 435.12 153.06 C 434.28 151.05 434.58 148.84 434.52 146.74 C 436.44 145.96 438.42 145.38 440.44 144.90 C 440.54 141.88 440.21 138.82 439.06 136.00 C 435.46 126.63 429.52 118.39 423.30 110.59 C 418.09 104.51 411.79 99.51 406.11 93.90 C 403.94 91.68 401.15 89.94 399.71 87.12 Z" fill="#f9f9f9" opacity="1.00" stroke="#f9f9f9" stroke-width="0.25"/>
<path d="M 252.37 85.05 C 257.54 83.67 263.26 85.26 267.44 88.48 C 274.17 95.21 273.06 107.12 266.14 113.33 C 269.37 116.09 273.76 116.56 277.49 118.36 C 289.29 123.50 298.31 133.76 302.89 145.70 C 282.92 145.81 262.96 145.40 243.00 145.26 C 232.08 145.35 221.09 144.86 210.26 146.54 C 213.69 134.15 223.11 123.88 234.97 119.05 C 238.41 117.78 241.97 116.86 245.32 115.34 C 245.59 114.75 246.14 113.56 246.42 112.96 C 244.09 109.35 241.10 105.81 240.96 101.29 C 240.05 94.04 245.37 86.79 252.37 85.05 Z" fill="#f9f9f9" opacity="1.00" stroke="#f9f9f9" stroke-width="0.25"/>
<path d="M 38.26 101.90 C 38.24 97.50 43.89 98.11 46.64 99.55 C 46.65 101.41 46.66 103.27 46.54 105.13 C 45.31 105.52 44.07 105.92 42.84 106.33 C 40.72 105.80 37.47 104.79 38.26 101.90 Z" fill="#f9f9f9" opacity="1.00" stroke="#f9f9f9" stroke-width="0.25"/>
<path d="M 463.46 101.57 C 465.52 100.65 467.64 101.98 469.55 102.67 C 469.71 104.89 470.38 107.67 468.29 109.24 C 466.57 111.24 463.70 110.53 461.40 110.69 C 460.08 107.58 460.76 103.71 463.46 101.57 Z" fill="#f9f9f9" opacity="1.00" stroke="#f9f9f9" stroke-width="0.25"/>
<path d="M 22.38 123.64 C 31.41 120.91 40.67 125.06 48.57 129.21 C 51.69 130.23 55.21 130.14 58.01 132.04 C 62.66 135.32 65.40 140.64 66.73 146.06 C 69.50 156.89 67.41 169.21 59.60 177.52 C 54.66 183.46 46.17 185.53 38.83 183.77 C 34.01 182.46 29.60 178.22 29.58 172.99 C 29.28 168.96 31.97 165.70 33.14 162.06 C 33.06 160.76 32.30 159.25 30.81 159.28 C 26.51 158.84 23.38 163.38 19.04 162.62 C 14.65 161.98 11.92 157.87 9.84 154.33 C 6.19 146.90 5.65 136.93 11.42 130.40 C 14.07 126.83 18.24 124.92 22.38 123.64 Z" fill="#f9f9f9" opacity="1.00" stroke="#f9f9f9" stroke-width="0.25"/>
<path d="M 476.59 134.26 C 482.76 131.36 490.16 131.05 496.58 133.34 C 503.29 136.11 507.14 143.10 508.53 149.93 C 509.90 156.69 509.89 163.94 507.22 170.39 C 504.53 177.01 501.53 184.26 495.05 188.03 C 487.36 192.60 477.27 191.14 470.25 185.98 C 465.73 182.51 463.78 176.95 461.03 172.17 C 459.83 170.31 459.36 168.16 459.36 165.98 C 459.80 165.43 460.68 164.32 461.12 163.77 C 462.13 163.33 463.15 162.89 464.17 162.45 C 470.19 164.87 468.23 172.67 472.40 176.66 C 476.26 180.70 482.35 181.33 487.59 180.39 C 492.02 179.13 495.38 174.66 494.74 170.00 C 493.82 167.89 491.32 167.26 489.52 166.12 C 488.35 163.92 488.09 160.90 490.38 159.31 C 493.02 155.85 499.34 157.21 500.01 161.63 C 500.42 161.63 501.25 161.62 501.66 161.62 C 502.48 155.65 500.72 149.47 497.40 144.52 C 493.63 139.46 486.25 138.43 480.76 141.11 C 478.25 142.52 475.53 141.66 473.27 140.28 C 473.59 137.93 474.00 135.13 476.59 134.26 Z" fill="#f9f9f9" opacity="1.00" stroke="#f9f9f9" stroke-width="0.25"/>
<path d="M 15.50 144.93 C 15.06 138.26 21.10 131.44 28.03 132.44 C 33.29 133.12 38.94 131.76 43.83 134.26 C 47.59 136.07 52.41 136.26 54.98 139.97 C 59.53 146.45 60.70 154.88 59.24 162.55 C 58.40 166.11 57.09 170.01 53.81 172.04 C 50.94 174.03 47.20 173.70 43.92 173.25 C 42.34 172.69 40.21 172.04 40.09 170.01 C 40.25 166.82 42.93 164.32 45.91 163.56 C 48.40 162.93 50.39 160.71 50.28 158.05 C 50.57 153.38 48.41 147.71 43.25 146.86 C 43.18 149.27 43.61 151.72 43.12 154.11 C 41.56 154.76 39.86 155.01 38.22 155.38 C 37.09 153.05 36.08 150.51 33.86 149.00 C 31.77 151.01 30.15 154.12 27.08 154.67 C 21.41 155.52 15.65 150.67 15.50 144.93 Z" fill="#395144" opacity="1.00" stroke="#395144" stroke-width="0.25"/>
<path d="M 202.08 153.84 C 203.51 152.03 204.43 148.96 207.12 148.75 C 213.72 148.35 220.33 147.67 226.95 147.81 C 242.97 147.91 258.99 147.27 274.99 148.08 C 282.66 148.18 290.33 148.23 298.01 148.23 C 302.05 148.31 306.12 147.46 310.13 148.38 C 311.48 149.92 312.82 151.48 314.08 153.10 C 303.74 153.08 293.40 153.61 283.05 153.56 C 261.69 153.19 240.32 153.18 218.95 153.58 C 213.32 153.38 207.68 153.03 202.08 153.84 Z" fill="#f9f9f9" opacity="1.00" stroke="#f9f9f9" stroke-width="0.25"/>
<path d="M 201.60 156.40 C 208.36 155.18 215.18 156.68 221.98 156.19 C 229.31 155.71 236.66 155.51 244.00 155.58 C 267.46 156.17 290.93 155.68 314.39 155.52 C 314.49 157.36 314.58 159.21 314.64 161.06 C 303.44 161.57 292.24 162.39 281.02 162.02 C 261.68 161.35 242.33 161.99 222.98 162.25 C 215.98 162.38 208.97 162.91 201.97 162.45 C 201.78 160.44 201.66 158.42 201.60 156.40 Z" fill="#f9f9f9" opacity="1.00" stroke="#f9f9f9" stroke-width="0.25"/>
<path d="M 258.03 165.18 C 277.63 165.21 297.29 166.46 316.84 164.60 C 316.65 166.43 316.81 168.87 314.44 169.18 C 301.68 170.02 288.87 170.33 276.07 170.51 C 250.27 170.51 224.40 170.74 198.66 168.57 C 198.87 167.75 199.27 166.13 199.47 165.32 C 218.99 165.47 238.51 165.16 258.03 165.18 Z" fill="#f9f9f9" opacity="1.00" stroke="#f9f9f9" stroke-width="0.25"/>
<path d="M 177.50 186.46 C 184.03 180.14 191.13 174.36 198.94 169.68 C 200.00 169.74 202.14 169.87 203.20 169.94 C 201.16 172.05 198.85 174.09 197.66 176.84 C 196.64 182.00 197.72 187.66 201.14 191.75 C 205.55 196.41 211.80 198.57 217.89 199.99 C 221.48 200.80 225.24 202.66 226.49 206.39 C 230.13 218.25 229.58 230.78 229.66 243.04 C 229.31 245.66 231.33 247.55 232.51 249.65 C 234.25 252.29 234.83 255.60 236.94 258.01 C 238.34 259.61 240.57 259.85 242.51 260.30 C 253.55 262.03 264.69 264.24 274.80 269.17 C 279.06 271.12 283.62 272.26 288.06 273.70 C 282.77 281.05 278.99 289.62 277.89 298.66 C 277.54 300.41 277.55 302.72 275.65 303.55 C 270.33 305.61 264.63 306.43 259.28 308.39 C 259.04 311.74 260.37 314.94 260.91 318.21 C 262.25 325.39 262.98 332.67 263.78 339.92 C 260.24 339.42 256.71 338.89 253.16 338.52 C 251.84 333.61 250.37 328.74 248.53 324.00 C 249.97 322.07 251.90 320.22 251.98 317.66 C 252.40 312.37 252.42 307.05 252.24 301.76 C 258.31 301.64 264.89 301.48 270.22 298.23 C 274.45 294.20 273.78 287.66 275.71 282.51 C 276.58 279.37 279.24 274.76 275.43 272.56 C 267.47 268.12 257.99 266.70 248.96 267.26 C 244.60 267.18 239.48 269.16 238.42 273.85 C 236.77 281.24 239.00 288.78 238.94 296.24 C 233.63 298.96 228.00 301.26 222.01 301.83 C 214.69 302.50 207.32 302.47 199.98 302.49 C 192.16 302.49 184.54 300.55 177.04 298.53 C 175.22 298.02 173.90 296.49 173.01 294.90 C 170.36 289.86 168.78 284.16 169.42 278.44 C 174.54 277.02 180.70 277.44 184.63 281.36 C 188.21 284.83 185.91 290.58 188.71 294.43 C 191.80 297.12 196.12 297.51 200.05 297.67 C 206.24 297.85 212.72 298.04 218.52 295.48 C 220.73 294.64 222.79 292.87 223.17 290.42 C 224.02 284.39 223.61 278.27 223.33 272.22 C 224.93 272.70 226.55 273.18 228.16 273.67 C 228.83 279.59 228.06 285.81 230.45 291.41 C 231.03 291.41 232.19 291.40 232.77 291.39 C 232.77 286.24 232.32 281.10 232.20 275.94 C 232.15 273.72 231.01 271.75 230.16 269.76 C 231.60 268.09 233.03 266.42 234.46 264.76 C 232.40 258.91 229.64 253.30 226.31 248.08 C 226.12 247.18 227.00 246.45 227.23 245.63 C 225.19 242.78 221.78 240.95 220.12 237.88 C 221.81 235.26 224.34 233.03 224.65 229.73 C 214.25 228.81 203.95 227.05 193.68 225.26 C 192.85 228.31 192.26 231.59 190.16 234.09 C 187.81 233.55 185.57 232.62 183.35 231.68 C 183.39 226.60 186.16 221.93 185.45 216.78 C 182.41 213.42 175.53 210.64 172.79 215.75 C 168.19 224.07 166.54 233.88 166.51 243.31 C 170.97 245.91 176.14 246.66 181.12 247.71 C 180.32 251.13 179.58 254.58 179.34 258.10 C 182.50 260.36 185.96 262.61 187.70 266.25 C 190.37 271.92 194.84 276.68 200.09 280.06 C 205.64 282.80 212.74 278.06 212.80 272.00 C 210.50 268.60 208.11 265.27 205.59 262.03 C 207.02 259.19 208.81 256.54 210.86 254.10 C 209.89 251.41 207.48 249.79 205.28 248.17 C 206.77 246.11 208.24 244.04 209.84 242.06 C 212.60 245.05 215.31 248.14 217.25 251.74 C 216.33 253.44 215.30 255.10 214.55 256.89 C 214.72 258.39 215.09 259.86 215.42 261.34 C 213.44 260.69 211.46 260.03 209.47 259.42 C 209.68 261.19 209.87 263.20 211.43 264.37 C 214.28 267.07 216.73 270.14 219.37 273.04 C 220.20 276.75 220.26 280.56 220.21 284.34 C 210.37 283.38 200.74 286.30 190.93 286.44 C 190.13 283.25 189.21 279.67 186.20 277.84 C 182.30 275.48 177.76 272.77 173.03 273.90 C 170.78 274.30 168.59 274.91 166.41 275.57 C 163.83 283.70 166.52 292.76 171.40 299.49 C 172.64 301.10 170.05 302.09 169.29 303.21 C 164.78 306.82 167.22 313.08 167.50 317.90 C 165.68 316.97 163.89 316.00 162.10 315.04 C 163.08 309.53 163.09 303.88 162.10 298.37 C 160.48 288.12 159.30 277.73 160.07 267.35 C 165.23 267.49 170.35 268.23 175.47 268.87 C 178.20 269.52 181.55 269.80 183.11 272.49 L 184.77 272.56 C 184.46 270.85 185.08 268.72 183.85 267.31 C 180.13 265.02 175.72 264.33 171.46 263.83 C 166.42 263.34 161.29 263.02 156.28 263.99 C 154.01 278.41 158.93 292.57 158.89 306.95 C 159.01 310.23 157.93 313.64 158.91 316.84 C 162.00 320.79 167.56 321.56 172.27 321.80 C 171.89 316.55 168.73 310.25 172.70 305.68 C 174.78 302.60 178.97 303.40 182.05 304.06 C 190.22 306.00 198.64 306.68 207.03 306.45 C 213.31 306.24 219.68 306.83 225.86 305.44 C 230.25 304.46 234.36 302.58 238.49 300.84 C 238.59 304.05 238.71 307.26 238.76 310.47 C 230.11 311.08 221.47 311.92 212.88 313.10 C 209.41 313.52 205.19 315.39 205.40 319.55 C 205.34 329.08 204.91 338.63 205.39 348.15 C 205.76 350.89 205.48 354.47 208.21 356.10 C 212.78 358.92 218.39 358.20 223.51 358.72 C 223.10 360.02 223.96 362.49 221.91 362.53 C 217.92 362.99 213.97 361.92 210.08 361.21 C 206.87 360.42 203.07 359.80 200.97 356.97 C 199.54 352.90 199.83 348.41 198.36 344.34 C 197.62 342.54 195.55 341.94 194.08 340.89 C 198.01 335.91 200.05 329.71 200.35 323.41 C 194.15 321.80 187.91 320.32 181.56 319.45 C 181.55 318.15 181.56 316.84 181.56 315.54 C 181.90 315.37 182.57 315.02 182.90 314.85 C 188.81 315.36 194.62 317.04 200.58 316.77 C 200.29 312.95 196.10 313.53 193.39 312.92 C 188.31 312.54 183.29 311.02 178.17 311.52 C 177.11 318.77 177.02 326.28 174.38 333.20 C 173.76 334.99 171.73 335.60 170.04 335.89 C 164.88 336.70 159.65 335.68 154.61 334.58 C 154.94 335.84 155.26 337.12 155.59 338.40 C 163.73 340.98 172.65 340.40 180.43 336.90 C 179.39 340.95 178.73 345.09 177.98 349.20 C 171.93 349.91 165.82 348.51 159.74 348.56 C 159.26 349.86 158.79 351.17 158.32 352.49 C 168.92 353.72 180.00 352.89 190.14 356.77 C 193.55 365.08 195.67 373.86 197.82 382.56 C 205.65 383.88 213.92 382.58 221.45 385.49 C 223.20 389.91 224.49 394.59 224.39 399.38 C 216.92 399.88 209.52 398.37 202.16 397.24 C 199.22 397.05 198.29 394.01 196.89 391.94 C 203.41 392.79 210.24 395.70 216.70 393.09 C 215.73 392.08 214.52 391.42 213.11 391.39 C 207.16 390.67 201.24 389.43 195.68 387.14 C 193.83 386.38 193.45 384.16 192.70 382.52 C 190.23 375.38 188.21 367.05 181.50 362.62 C 176.79 359.28 170.86 359.10 165.33 358.73 C 165.34 359.94 165.34 361.16 165.34 362.39 C 170.36 363.30 176.01 363.38 180.03 366.95 C 185.34 371.34 186.80 378.43 189.16 384.57 C 190.48 388.63 193.14 392.04 194.74 395.98 C 189.22 392.58 186.53 386.38 183.04 381.19 C 179.85 376.55 177.57 370.04 171.16 369.21 C 172.89 373.99 176.65 377.56 179.23 381.85 C 183.20 387.64 186.42 394.64 192.90 398.07 C 204.32 401.92 216.45 403.45 228.48 403.30 C 227.90 396.04 227.69 388.22 224.12 381.70 C 216.35 379.16 208.13 379.73 200.13 378.79 C 199.76 376.71 199.40 374.63 199.08 372.55 C 206.70 374.87 214.65 376.00 222.55 376.69 C 222.95 375.43 223.21 374.13 223.48 372.85 C 214.15 372.42 205.12 369.87 195.97 368.25 C 196.40 368.07 197.25 367.71 197.68 367.54 C 194.91 363.62 195.11 358.63 193.31 354.36 C 190.65 350.95 185.98 350.55 182.01 350.07 C 182.20 347.33 182.51 344.60 182.81 341.88 C 184.79 341.84 186.78 341.79 188.77 341.75 C 190.68 343.67 193.14 344.96 194.94 346.97 C 196.99 350.97 195.82 355.89 198.23 359.76 C 200.29 363.00 204.22 364.29 207.76 365.19 C 213.94 366.35 220.25 367.15 226.54 366.51 C 228.38 361.67 227.60 356.42 227.89 351.38 C 228.18 346.52 228.26 341.65 228.43 336.79 C 233.46 335.90 238.60 335.36 243.47 333.75 C 243.48 332.58 243.46 331.41 243.40 330.24 C 236.95 330.95 230.69 332.82 224.26 333.73 C 223.54 341.14 223.59 348.59 223.43 356.03 C 218.81 355.24 214.30 353.91 209.90 352.33 C 209.06 342.22 209.41 332.05 209.91 321.94 C 209.84 319.58 211.63 317.45 213.99 317.21 C 223.48 315.44 233.20 315.50 242.79 314.63 C 243.03 304.77 242.87 294.91 242.31 285.07 C 242.13 280.77 241.73 276.29 243.55 272.25 C 248.21 270.48 253.26 271.27 258.09 271.69 C 261.58 272.13 265.15 272.39 268.43 273.80 C 263.91 276.54 258.59 277.00 253.50 277.85 C 253.61 277.02 253.82 275.35 253.93 274.51 C 252.29 274.47 250.65 274.38 249.02 274.43 C 247.06 274.16 247.77 276.89 247.53 278.02 C 247.47 290.72 249.10 303.44 247.93 316.13 C 247.98 318.94 245.51 320.80 242.96 321.23 C 234.55 322.68 226.01 323.11 217.51 323.73 C 216.65 331.61 215.82 339.55 215.93 347.48 C 217.09 347.57 218.25 347.67 219.41 347.77 C 219.56 340.95 220.61 334.20 220.67 327.38 C 228.81 327.34 236.89 326.28 244.97 325.44 C 246.28 329.67 247.61 333.91 249.27 338.03 C 248.96 338.72 248.35 340.12 248.05 340.82 C 243.38 338.90 237.90 337.69 233.39 340.68 C 233.45 341.56 233.57 343.31 233.64 344.18 C 236.67 343.37 240.07 342.15 242.96 344.10 C 245.13 345.18 244.25 348.00 244.39 349.93 C 242.08 351.44 239.49 352.59 237.48 354.51 C 234.81 358.11 234.38 362.77 233.48 367.03 C 231.97 377.23 230.46 387.73 232.54 397.96 C 233.79 397.83 235.05 397.70 236.31 397.55 C 235.13 383.89 236.47 369.96 240.36 356.81 C 243.96 354.85 247.74 352.66 251.99 352.84 C 257.50 353.05 263.20 354.03 268.54 352.14 C 268.83 349.77 269.30 347.39 268.99 345.00 C 267.75 333.86 266.16 322.74 263.80 311.78 L 264.24 311.27 C 269.29 309.58 274.73 308.99 279.45 306.36 C 281.51 301.88 282.43 297.03 283.72 292.30 C 289.27 294.64 294.99 296.55 300.67 298.55 C 299.78 301.46 298.92 304.37 298.03 307.28 C 294.03 308.10 290.01 308.87 286.11 310.10 C 280.83 311.79 275.15 312.50 270.36 315.47 C 272.09 327.94 274.60 340.48 273.65 353.14 C 273.32 356.66 271.01 360.78 267.00 360.67 C 261.06 360.15 255.08 358.54 249.10 359.47 C 245.38 360.22 244.11 364.22 243.15 367.39 C 240.28 377.98 240.52 389.17 241.85 399.97 C 242.49 400.18 243.76 400.60 244.40 400.81 C 244.62 394.10 244.59 387.38 244.92 380.68 C 251.00 380.60 257.15 380.46 263.18 381.47 C 265.26 381.80 267.23 382.83 268.74 384.30 C 270.14 387.66 269.05 391.46 267.47 394.57 C 266.52 394.59 264.60 394.62 263.65 394.63 C 263.74 392.67 263.84 390.71 263.88 388.76 C 259.64 387.16 255.07 387.70 250.64 387.64 C 250.22 392.50 249.53 397.37 249.72 402.26 C 251.00 404.39 253.94 403.65 256.02 404.07 C 273.22 404.48 290.36 402.42 307.37 400.07 C 305.99 393.04 303.94 386.15 302.50 379.12 C 301.15 372.30 298.49 365.80 297.42 358.91 C 299.94 358.56 302.47 358.27 305.01 358.15 C 306.68 364.70 308.89 371.17 309.63 377.92 C 310.56 384.82 311.77 391.67 312.97 398.52 C 318.50 398.24 324.03 397.13 329.17 395.05 C 331.49 394.13 333.19 392.26 334.33 390.09 C 328.77 391.73 323.32 393.83 317.57 394.72 C 316.66 388.58 315.15 382.55 314.19 376.42 C 320.06 374.76 326.35 373.84 331.52 370.40 C 336.78 366.82 339.97 361.11 342.53 355.45 C 347.02 345.42 351.12 335.21 354.79 324.85 C 348.51 322.16 340.96 321.85 335.65 317.29 C 335.67 309.50 336.14 301.33 339.20 294.06 C 340.08 291.33 343.25 291.49 345.53 290.98 C 345.35 287.44 344.25 284.08 343.18 280.74 C 348.29 280.32 353.48 279.97 358.39 278.36 C 359.88 273.16 358.95 267.69 358.25 262.45 C 357.20 257.72 355.59 252.32 351.04 249.83 C 352.38 245.29 351.19 240.56 349.49 236.31 C 347.07 236.40 344.66 236.60 342.26 236.86 C 343.68 232.38 344.56 227.43 342.78 222.92 C 341.21 218.41 337.46 215.19 334.15 211.94 C 335.71 210.49 337.00 208.69 338.86 207.59 C 340.37 207.35 341.43 208.61 342.52 209.43 C 346.77 213.16 348.75 218.63 351.22 223.56 C 354.50 230.01 356.43 237.02 358.37 243.97 C 362.18 258.27 364.84 272.92 365.92 287.69 C 361.75 286.78 357.47 286.47 353.21 286.53 C 352.76 290.28 353.06 294.05 353.22 297.82 C 350.60 298.15 347.93 298.07 345.34 298.55 C 342.58 302.90 342.28 308.30 341.63 313.29 C 348.15 316.60 355.46 317.81 362.46 319.70 C 357.74 333.76 352.16 347.53 346.24 361.13 C 343.86 365.98 340.95 370.55 338.13 375.15 C 335.10 379.64 332.28 385.18 326.46 386.37 C 326.57 384.40 326.72 382.44 326.81 380.48 C 325.40 380.85 323.98 381.23 322.58 381.62 C 322.43 384.86 322.41 388.14 322.86 391.37 C 326.24 390.28 330.00 389.93 333.03 387.98 C 339.93 381.51 343.95 372.79 348.95 364.91 C 353.83 355.58 357.34 345.62 361.03 335.78 C 363.38 329.93 365.46 323.97 367.30 317.94 C 370.17 307.21 369.91 295.99 369.30 285.00 C 368.49 275.21 367.18 265.46 365.18 255.84 C 362.95 240.99 357.39 226.81 350.20 213.69 C 348.21 209.74 345.59 205.30 340.89 204.37 C 335.35 202.73 331.63 208.15 326.85 209.81 C 322.38 211.40 318.57 214.22 315.91 218.16 C 314.14 214.28 312.18 210.35 311.92 206.01 C 316.63 203.98 321.72 203.24 326.76 202.55 C 326.63 199.56 326.15 196.61 325.40 193.73 C 327.16 194.52 329.04 194.81 330.98 194.70 C 327.68 189.49 324.72 183.80 319.71 180.00 C 315.38 176.76 310.50 174.16 305.18 173.02 C 308.07 172.67 310.96 172.33 313.81 171.75 C 315.18 171.59 316.77 170.94 318.00 171.93 C 326.27 176.69 333.08 183.51 339.63 190.36 C 347.28 198.16 354.50 206.61 359.46 216.41 C 365.19 227.77 367.24 240.47 369.40 252.87 C 369.80 256.12 371.12 259.14 373.00 261.81 C 378.33 261.58 382.69 257.73 388.05 257.63 C 393.12 257.21 398.88 258.65 401.78 263.17 C 405.53 268.58 401.90 276.61 395.90 278.47 C 390.88 279.68 385.90 277.89 380.89 277.79 C 378.46 278.50 375.71 280.11 375.36 282.86 C 374.92 286.57 375.40 290.30 375.34 294.02 C 375.54 303.84 373.42 313.60 369.91 322.74 C 368.13 327.29 367.45 332.15 367.15 337.00 C 367.27 341.29 361.46 341.78 360.69 345.76 C 358.59 350.90 361.54 356.79 358.45 361.61 C 352.43 372.66 346.35 383.75 338.87 393.90 C 336.83 396.48 334.94 399.37 331.99 400.99 C 328.89 402.61 325.43 403.33 322.05 404.12 C 288.26 411.41 253.40 411.36 219.07 409.03 C 208.29 408.07 197.43 406.71 187.14 403.22 C 185.72 402.66 184.83 401.35 183.85 400.26 C 179.57 395.10 175.54 389.73 171.79 384.18 C 165.18 373.52 157.81 363.12 153.62 351.19 C 150.93 344.05 151.85 336.19 149.37 329.00 C 146.09 318.47 144.05 307.59 143.23 296.60 C 139.97 271.30 141.83 244.79 152.19 221.24 C 155.86 213.55 160.51 206.38 165.47 199.47 C 168.90 194.63 173.36 190.68 177.50 186.46 Z" fill="#f9f9f9" opacity="1.00" stroke="#f9f9f9" stroke-width="0.25"/>
<path d="M 201.79 178.93 C 202.70 175.65 205.50 172.54 208.93 171.96 C 213.29 172.10 217.54 173.20 221.89 173.43 C 238.03 174.42 254.21 173.36 270.34 174.11 C 271.46 183.12 273.10 192.06 273.87 201.12 C 274.04 203.57 274.55 206.18 273.58 208.53 C 269.04 209.41 264.34 208.71 259.74 208.82 C 259.74 207.46 259.73 206.11 259.73 204.75 C 262.68 204.63 265.64 204.39 268.51 203.66 C 267.62 195.80 267.47 187.51 263.72 180.35 C 247.92 178.50 231.99 179.91 216.14 179.59 C 216.18 180.47 216.26 182.25 216.30 183.14 C 226.49 183.98 236.71 183.21 246.90 183.29 C 248.47 183.21 249.34 184.77 250.04 185.94 C 253.54 191.65 254.03 198.50 254.91 204.98 C 255.72 210.69 254.83 216.47 255.60 222.18 C 261.41 222.77 267.27 222.88 273.08 223.52 C 276.30 223.89 279.74 225.40 281.26 228.43 C 284.20 235.09 284.05 242.91 281.45 249.65 C 280.85 251.51 279.13 252.55 277.70 253.71 C 277.49 250.85 277.76 247.92 277.04 245.13 C 275.92 241.87 272.28 240.15 269.00 240.25 C 265.58 240.57 262.89 243.66 262.48 246.98 C 261.86 251.59 263.26 256.12 263.98 260.64 C 256.93 259.39 250.13 256.53 242.86 256.73 C 238.60 256.84 238.09 251.34 236.16 248.55 C 235.36 248.17 234.57 247.80 233.77 247.44 C 233.05 233.98 234.60 220.24 231.05 207.06 C 229.94 203.34 228.01 199.43 224.32 197.70 C 218.58 195.18 211.84 195.18 206.55 191.57 C 202.57 188.80 201.28 183.52 201.79 178.93 Z" fill="#f9f9f9" opacity="1.00" stroke="#f9f9f9" stroke-width="0.25"/>
<path d="M 274.43 174.52 C 277.05 174.49 279.67 174.51 282.30 174.59 C 282.57 178.55 282.78 182.52 282.94 186.48 C 280.77 186.57 278.61 186.65 276.44 186.75 C 275.82 182.66 275.19 178.58 274.43 174.52 Z" fill="#f9f9f9" opacity="1.00" stroke="#f9f9f9" stroke-width="0.25"/>
<path d="M 286.64 175.08 C 295.27 175.58 304.59 175.31 312.27 179.90 C 315.98 182.10 319.39 184.79 322.49 187.78 C 322.30 191.62 322.11 195.47 321.72 199.30 C 320.18 199.50 318.64 199.69 317.10 199.87 C 316.52 199.27 315.94 198.68 315.36 198.10 C 318.76 196.87 317.49 192.96 317.60 190.23 C 316.32 189.11 315.03 188.02 313.73 186.94 C 313.69 186.28 313.62 184.96 313.59 184.30 C 304.78 184.24 296.23 182.02 287.52 181.18 C 287.21 179.15 286.93 177.11 286.64 175.08 Z" fill="#f9f9f9" opacity="1.00" stroke="#f9f9f9" stroke-width="0.25"/>
<path d="M 207.08 176.14 C 207.83 176.19 209.32 176.28 210.07 176.32 C 210.60 179.86 209.03 185.16 213.32 186.76 C 221.23 189.35 229.76 189.54 238.01 189.02 C 239.82 188.94 241.76 188.76 243.44 189.60 C 247.38 192.37 248.04 197.53 248.80 201.92 C 249.87 210.89 249.46 219.99 248.63 228.97 C 252.11 229.19 255.59 229.59 259.02 230.23 C 263.88 228.09 269.42 228.09 274.42 229.76 C 276.42 230.28 274.98 232.57 274.91 233.89 C 269.96 232.57 263.16 230.48 259.49 235.33 C 257.63 240.65 259.56 246.76 256.99 251.93 C 256.07 253.25 254.30 252.91 252.92 252.95 C 247.94 252.56 242.47 250.11 240.57 245.16 C 237.47 238.23 238.51 230.39 238.13 223.01 C 237.67 215.62 237.71 208.12 235.98 200.88 C 234.52 196.21 229.69 193.96 225.22 193.18 C 219.75 191.90 213.48 192.28 208.88 188.59 C 205.54 185.33 206.49 180.27 207.08 176.14 Z" fill="#395144" opacity="1.00" stroke="#395144" stroke-width="0.25"/>
<path d="M 85.86 182.98 C 89.24 180.29 93.15 178.18 97.32 177.00 C 93.95 179.71 90.10 181.98 85.86 182.98 Z" fill="#f9f9f9" opacity="1.00" stroke="#f9f9f9" stroke-width="0.25"/>
<path d="M 79.60 189.46 C 86.17 186.28 93.20 183.88 99.05 179.39 C 99.49 179.79 100.35 180.59 100.78 181.00 C 97.24 184.01 93.11 186.19 88.82 187.92 C 84.06 189.84 79.61 192.86 74.39 193.39 C 75.90 191.80 77.59 190.37 79.60 189.46 Z" fill="#f9f9f9" opacity="1.00" stroke="#f9f9f9" stroke-width="0.25"/>
<path d="M 78.78 195.11 C 87.84 191.23 97.29 187.76 104.72 181.04 C 111.38 186.94 116.72 194.22 121.00 201.99 C 124.16 207.64 128.01 212.85 131.98 217.94 C 135.51 222.59 141.51 223.85 146.76 225.58 C 143.69 235.41 140.36 245.24 139.21 255.54 C 137.80 266.98 137.15 278.61 138.44 290.10 C 139.70 301.75 140.23 313.58 143.35 324.94 C 144.53 329.24 146.56 333.23 147.91 337.48 C 136.35 336.04 124.67 331.07 117.25 321.79 C 109.31 312.18 106.39 299.61 104.77 287.53 C 102.57 267.65 106.37 247.79 106.16 227.91 C 105.64 218.59 103.74 208.09 95.90 202.03 C 91.39 197.46 85.08 195.40 78.78 195.11 Z" fill="#f9f9f9" opacity="1.00" stroke="#f9f9f9" stroke-width="0.25"/>
<path d="M 253.55 183.62 C 256.41 183.75 259.26 183.95 262.12 184.20 C 262.31 186.35 262.53 188.50 262.71 190.66 C 260.59 190.31 258.49 189.88 256.38 189.47 C 255.43 187.52 254.49 185.57 253.55 183.62 Z" fill="#f9f9f9" opacity="1.00" stroke="#f9f9f9" stroke-width="0.25"/>
<path d="M 453.57 189.03 C 454.25 187.28 454.73 185.37 456.02 183.94 C 458.73 183.19 462.01 184.66 463.55 186.99 C 463.59 188.73 462.69 190.30 462.17 191.92 C 461.64 192.29 460.57 193.03 460.04 193.40 C 458.23 192.80 456.45 192.14 454.69 191.42 C 454.41 190.82 453.85 189.63 453.57 189.03 Z" fill="#f9f9f9" opacity="1.00" stroke="#f9f9f9" stroke-width="0.25"/>
<path d="M 288.42 185.45 C 291.44 185.80 294.44 186.29 297.45 186.74 C 297.45 196.19 296.91 205.95 300.00 215.03 C 303.90 225.62 308.44 235.95 313.01 246.26 C 314.24 248.04 312.62 249.88 312.16 251.63 C 309.64 251.24 307.10 251.04 304.57 251.32 C 302.47 258.45 301.50 265.88 299.05 272.92 C 298.05 276.21 296.58 279.42 296.27 282.88 C 297.88 285.54 299.92 287.93 301.40 290.69 C 301.41 291.24 301.41 292.35 301.41 292.90 C 295.55 292.55 290.32 289.62 284.75 288.06 C 286.59 283.37 289.79 279.46 292.38 275.19 C 295.73 269.68 296.15 263.10 296.97 256.86 C 298.24 243.25 297.35 229.30 293.05 216.27 C 291.34 211.00 289.71 205.62 289.51 200.04 C 289.31 195.17 288.94 190.30 288.42 185.45 Z" fill="#f9f9f9" opacity="1.00" stroke="#f9f9f9" stroke-width="0.25"/>
<path d="M 181.85 190.91 C 182.73 189.32 183.57 187.70 184.66 186.25 C 187.06 186.90 189.00 188.54 190.89 190.08 C 196.45 194.92 202.36 199.33 208.10 203.95 C 206.76 205.97 205.43 208.02 204.86 210.40 C 206.30 210.65 207.74 211.01 209.21 211.07 C 210.92 209.39 211.74 206.83 213.97 205.69 C 217.01 204.96 220.57 205.72 222.49 208.34 C 225.08 213.17 223.37 219.92 218.31 222.37 C 213.04 224.60 207.30 222.81 201.91 222.17 C 199.73 221.66 196.79 221.93 195.72 219.49 C 192.98 214.79 190.73 209.83 188.10 205.07 C 185.69 201.12 188.97 196.24 192.68 194.53 C 190.34 193.54 188.04 192.49 185.70 191.53 C 183.80 195.94 182.21 202.43 176.48 202.99 C 166.43 215.34 160.54 231.23 160.59 247.15 C 163.13 251.16 168.79 251.01 172.82 252.69 C 172.36 253.96 171.92 255.24 171.48 256.52 C 166.73 255.07 162.03 253.42 157.55 251.28 C 156.96 249.21 156.39 247.09 156.58 244.91 C 157.54 229.57 162.16 214.00 172.07 202.01 C 173.20 200.12 175.51 200.72 177.33 200.51 C 178.07 197.00 179.61 193.71 181.85 190.91 Z" fill="#395144" opacity="1.00" stroke="#395144" stroke-width="0.25"/>
<path d="M 301.55 187.32 C 305.56 187.69 309.69 188.10 313.38 189.82 C 313.69 191.10 313.75 192.43 313.91 193.74 C 309.70 193.64 305.50 193.20 301.30 193.02 C 301.36 191.12 301.44 189.22 301.55 187.32 Z" fill="#f9f9f9" opacity="1.00" stroke="#f9f9f9" stroke-width="0.25"/>
<path d="M 234.39 192.11 C 237.06 192.28 239.72 192.58 242.37 192.98 C 246.04 201.82 245.82 211.58 245.46 220.97 C 245.05 227.50 245.54 234.34 243.45 240.61 C 240.43 227.28 243.76 213.16 239.94 199.91 C 239.10 196.70 236.46 194.53 234.39 192.11 Z" fill="#f9f9f9" opacity="1.00" stroke="#f9f9f9" stroke-width="0.25"/>
<path d="M 276.75 191.50 C 279.39 191.66 282.02 191.90 284.66 192.16 C 284.80 200.32 285.44 208.69 288.63 216.30 C 294.86 233.48 293.41 252.12 291.22 269.90 C 286.84 269.02 282.56 267.70 278.47 265.93 C 278.08 263.41 277.71 260.88 277.44 258.36 C 280.04 258.32 282.66 258.15 285.20 257.48 C 288.68 249.50 288.82 240.31 287.06 231.90 C 285.90 227.63 284.18 222.65 279.67 220.92 C 273.40 218.32 266.45 218.53 259.78 218.46 C 259.74 216.75 259.70 215.04 259.66 213.34 C 265.88 212.97 272.29 214.24 278.36 212.53 C 278.48 205.48 277.54 198.48 276.75 191.50 Z" fill="#f9f9f9" opacity="1.00" stroke="#f9f9f9" stroke-width="0.25"/>
<path d="M 257.39 194.15 C 259.46 194.25 261.53 194.37 263.60 194.48 C 263.90 196.51 264.21 198.55 264.48 200.59 C 262.57 200.67 260.67 200.75 258.77 200.80 C 258.37 198.57 257.87 196.36 257.39 194.15 Z" fill="#f9f9f9" opacity="1.00" stroke="#f9f9f9" stroke-width="0.25"/>
<path d="M 435.29 196.62 C 437.23 193.41 442.19 193.70 443.22 197.49 C 445.59 207.87 447.11 218.47 447.79 229.11 C 448.27 234.46 449.20 240.34 446.00 245.08 C 443.51 241.19 442.34 236.65 442.36 232.05 C 441.87 219.89 436.23 208.69 435.29 196.62 Z" fill="#f9f9f9" opacity="1.00" stroke="#f9f9f9" stroke-width="0.25"/>
<path d="M 301.63 197.11 C 305.50 197.11 309.36 197.52 313.23 197.83 C 314.12 198.54 315.01 199.25 315.92 199.95 C 313.44 200.34 311.04 200.97 308.65 201.68 C 308.17 205.38 308.04 209.25 309.38 212.81 C 311.95 220.19 315.37 227.25 318.96 234.18 C 320.84 238.13 325.04 240.38 329.13 241.36 C 335.13 242.15 341.19 241.34 347.14 240.56 C 347.60 243.07 348.02 245.60 348.30 248.14 C 338.03 249.15 327.60 248.49 317.50 246.42 C 312.99 235.83 307.95 225.46 304.08 214.60 C 302.02 209.02 302.17 202.96 301.63 197.11 Z" fill="#f9f9f9" opacity="1.00" stroke="#f9f9f9" stroke-width="0.25"/>
<path d="M 191.66 203.58 C 190.01 200.24 194.40 198.51 196.98 198.61 C 198.93 200.22 201.02 202.20 201.73 204.68 C 200.74 206.81 199.53 209.13 200.71 211.48 C 202.27 216.08 208.16 215.88 211.96 214.63 C 214.41 214.18 214.06 211.22 214.56 209.37 C 216.25 209.52 218.57 209.00 219.10 211.19 C 220.90 214.51 218.12 217.51 215.76 219.55 C 210.38 219.76 204.83 219.20 199.77 217.36 C 196.14 213.46 193.81 208.42 191.66 203.58 Z" fill="#f9f9f9" opacity="1.00" stroke="#f9f9f9" stroke-width="0.25"/>
<path d="M 73.71 243.95 C 72.73 228.99 73.16 213.70 77.51 199.25 C 79.62 199.41 81.73 199.62 83.83 199.86 C 76.39 235.38 78.54 272.82 90.25 307.18 C 95.34 322.84 102.49 337.83 111.65 351.51 C 113.75 354.81 116.53 357.91 117.04 361.93 C 114.10 358.72 111.61 355.15 109.00 351.68 C 105.62 347.17 101.83 342.97 98.76 338.23 C 88.68 323.19 82.61 305.88 78.19 288.44 C 74.78 273.86 73.85 258.88 73.71 243.95 Z" fill="#f9f9f9" opacity="1.00" stroke="#f9f9f9" stroke-width="0.25"/>
<path d="M 20.27 224.25 C 24.75 215.78 34.51 210.69 43.99 211.23 C 51.16 211.26 57.91 215.44 61.73 221.41 C 65.97 227.79 70.28 234.96 69.78 242.92 C 69.57 248.78 65.79 254.23 60.49 256.69 C 54.19 259.67 47.08 261.59 40.08 260.48 C 37.15 259.75 34.03 257.28 34.25 253.98 C 34.11 252.30 34.96 250.78 35.51 249.27 C 42.51 250.06 49.96 251.62 56.65 248.52 C 60.27 247.05 61.03 242.43 60.40 238.98 C 59.36 234.25 56.79 230.03 53.98 226.15 C 51.04 222.12 45.84 219.22 40.79 220.68 C 33.82 223.68 25.99 227.98 24.48 236.16 C 27.18 236.56 30.01 236.54 32.57 237.58 C 34.93 239.33 33.20 242.35 32.13 244.33 C 27.47 245.97 21.58 244.90 18.14 249.11 C 11.15 256.58 15.20 270.35 25.16 272.77 C 32.77 274.31 40.84 273.43 48.24 271.19 C 52.93 269.86 56.77 265.31 61.99 266.34 C 65.05 267.21 64.10 271.49 61.98 272.94 C 52.91 280.67 40.72 283.57 29.04 283.72 C 22.64 283.89 15.74 281.57 11.84 276.24 C 6.09 269.25 5.39 259.56 6.57 250.93 C 7.42 245.08 10.97 239.87 16.06 236.87 C 17.16 232.58 18.12 228.17 20.27 224.25 Z" fill="#f9f9f9" opacity="1.00" stroke="#f9f9f9" stroke-width="0.25"/>
<path d="M 456.30 218.30 C 463.69 211.32 476.34 210.01 484.40 216.59 C 490.52 221.63 493.93 229.36 495.29 237.04 C 497.25 249.23 488.00 261.55 476.14 264.11 C 469.91 265.65 463.35 264.25 457.61 261.65 C 454.47 260.12 451.61 257.47 450.58 254.06 C 449.87 251.48 451.99 247.83 454.97 248.56 C 458.20 248.75 460.24 251.37 462.52 253.28 C 467.11 254.85 472.79 254.75 476.82 251.77 C 485.02 246.33 485.48 233.56 479.75 226.18 C 474.70 219.52 462.62 222.08 460.36 229.96 C 459.94 232.59 460.27 236.55 463.16 237.60 C 466.84 238.36 466.91 234.01 468.02 231.66 C 470.09 232.05 473.81 232.15 473.81 235.01 C 472.64 238.14 471.13 241.13 470.25 244.37 C 467.01 246.59 462.20 246.40 459.33 243.64 C 454.81 239.78 450.58 234.25 451.30 227.96 C 451.31 224.14 453.74 220.90 456.30 218.30 Z" fill="#f9f9f9" opacity="1.00" stroke="#f9f9f9" stroke-width="0.25"/>
<path d="M 318.98 225.95 C 317.97 220.58 322.05 215.31 327.21 213.97 C 332.97 215.48 337.95 220.01 339.50 225.81 C 340.29 229.74 340.25 235.27 335.89 237.09 C 331.33 238.47 325.54 237.28 323.12 232.79 C 321.51 230.83 322.91 228.46 323.48 226.41 C 324.50 225.97 325.53 225.54 326.61 225.24 C 327.49 227.28 327.66 229.66 329.05 231.46 C 329.92 231.57 331.67 231.79 332.54 231.90 C 332.22 228.89 332.20 225.43 330.01 223.06 C 328.79 221.56 326.68 221.73 324.97 221.42 C 323.01 222.99 321.04 224.52 318.98 225.95 Z" fill="#f9f9f9" opacity="1.00" stroke="#f9f9f9" stroke-width="0.25"/>
<path d="M 392.14 217.44 C 403.30 213.02 416.06 216.87 425.11 224.11 C 428.47 226.50 427.74 231.52 431.16 233.90 C 440.40 242.22 444.49 254.82 444.80 266.98 C 444.94 277.42 444.04 287.94 441.28 298.03 C 439.94 302.90 437.87 307.69 434.47 311.49 C 426.65 319.52 418.25 327.18 408.36 332.59 C 399.94 337.05 390.39 338.72 380.98 339.40 C 377.40 339.67 373.88 338.90 370.37 338.43 C 370.39 337.90 370.44 336.86 370.46 336.34 C 373.00 334.75 375.88 333.66 378.91 333.68 C 385.95 333.54 393.10 332.34 399.48 329.27 C 411.81 322.08 422.95 311.40 427.10 297.37 C 430.81 284.71 433.34 270.88 429.63 257.92 C 427.40 250.24 422.15 243.14 414.48 240.27 C 404.28 236.31 391.22 238.17 383.79 246.64 C 381.28 249.27 380.72 253.00 378.96 256.07 C 377.69 258.16 375.05 258.39 372.85 258.47 C 372.58 252.38 370.85 246.29 372.16 240.22 C 377.40 235.33 383.34 231.15 389.69 227.82 C 401.13 222.79 415.61 224.34 425.26 232.49 C 425.29 231.78 425.36 230.36 425.39 229.65 C 418.58 223.61 409.11 220.72 400.09 221.66 C 392.20 223.00 384.93 226.85 378.53 231.53 C 377.62 232.31 376.44 232.56 375.31 232.77 C 377.92 225.22 385.06 220.37 392.14 217.44 Z" fill="#f9f9f9" opacity="1.00" stroke="#f9f9f9" stroke-width="0.25"/>
<path d="M 170.72 240.41 C 170.96 232.22 173.43 224.31 176.04 216.61 C 177.52 216.90 179.00 217.21 180.49 217.52 C 180.67 218.09 181.03 219.23 181.21 219.80 C 180.21 224.87 179.01 230.16 180.24 235.30 C 183.05 236.17 185.87 237.08 188.74 237.75 C 188.88 237.99 189.17 238.46 189.31 238.70 C 188.11 242.20 187.98 245.99 189.22 249.50 C 192.55 249.75 196.35 250.68 199.05 248.08 C 196.88 246.87 194.57 245.97 192.25 245.10 C 191.97 243.22 191.81 241.32 191.71 239.42 C 194.95 239.82 198.16 240.52 201.16 241.83 C 201.41 241.11 201.91 239.66 202.16 238.93 C 202.03 238.44 201.77 237.47 201.64 236.98 C 199.42 236.37 197.21 235.70 194.99 235.08 C 195.41 233.54 195.90 232.03 196.48 230.56 C 203.91 231.26 211.27 232.65 218.74 233.00 C 217.53 234.86 215.77 236.52 215.28 238.76 C 217.09 241.14 219.29 243.19 221.08 245.59 C 222.54 245.72 224.01 245.85 225.48 245.97 C 224.72 247.26 223.26 247.46 221.93 247.81 C 225.50 253.14 228.97 258.67 230.75 264.89 C 229.82 266.22 228.90 267.56 228.00 268.90 C 224.39 268.68 220.92 267.67 217.39 266.98 C 217.41 266.62 217.44 265.91 217.46 265.56 C 218.57 264.45 219.66 263.33 220.75 262.21 C 219.87 260.53 218.99 258.86 218.20 257.13 C 220.14 255.99 222.22 254.51 221.47 251.92 C 219.58 246.40 214.89 242.59 211.99 237.65 C 210.95 236.65 209.31 236.94 208.02 236.54 C 205.05 242.62 199.30 247.15 197.85 253.98 C 197.18 261.37 204.00 265.85 207.19 271.70 C 208.35 273.24 206.99 274.98 206.54 276.51 C 204.85 276.70 202.93 277.93 201.55 276.40 C 194.06 270.66 190.65 261.37 183.51 255.27 C 184.23 251.40 185.33 247.61 185.86 243.71 C 181.81 243.61 177.82 242.92 173.90 241.94 C 172.76 241.60 171.38 241.54 170.72 240.41 Z" fill="#f9f9f9" opacity="1.00" stroke="#f9f9f9" stroke-width="0.25"/>
<path d="M 39.44 235.02 C 40.26 233.41 41.65 230.66 43.87 231.91 C 45.98 233.79 47.27 236.39 48.43 238.92 C 48.17 239.54 47.66 240.77 47.40 241.39 C 45.73 242.34 43.88 242.79 41.96 242.77 C 41.09 240.22 39.07 237.82 39.44 235.02 Z" fill="#f9f9f9" opacity="1.00" stroke="#f9f9f9" stroke-width="0.25"/>
<path d="M 150.28 234.91 C 150.46 232.97 152.02 231.81 153.72 231.16 C 152.83 238.82 151.12 246.41 151.05 254.16 C 153.85 254.08 156.65 254.28 159.43 254.63 C 159.63 255.90 159.82 257.18 160.00 258.47 C 156.76 259.24 153.45 259.19 150.20 258.57 C 149.71 280.72 152.49 302.84 156.61 324.54 C 158.99 328.08 164.17 326.67 167.80 327.88 C 167.73 328.53 167.61 329.81 167.54 330.45 C 162.94 331.61 157.12 331.72 153.82 327.73 C 152.53 325.42 152.62 322.68 152.18 320.15 C 150.05 307.86 147.87 295.53 147.48 283.04 C 146.68 266.97 146.73 250.67 150.28 234.91 Z" fill="#395144" opacity="1.00" stroke="#395144" stroke-width="0.25"/>
<path d="M 247.98 243.05 C 248.64 239.62 248.38 236.11 248.83 232.66 C 250.83 232.91 252.81 233.29 254.81 233.61 C 254.84 238.53 255.21 243.51 254.23 248.38 C 250.40 249.09 245.68 248.43 243.97 244.43 C 245.36 244.11 246.70 243.65 247.98 243.05 Z" fill="#f9f9f9" opacity="1.00" stroke="#f9f9f9" stroke-width="0.25"/>
<path d="M 266.56 247.01 C 267.27 243.55 273.32 243.93 273.49 247.58 C 274.08 253.35 273.86 259.19 274.38 264.98 C 272.31 264.23 270.27 263.43 268.26 262.55 C 267.54 257.40 266.13 252.24 266.56 247.01 Z" fill="#f9f9f9" opacity="1.00" stroke="#f9f9f9" stroke-width="0.25"/>
<path d="M 316.77 251.14 C 327.85 253.26 339.13 252.58 350.32 252.70 C 354.32 259.54 355.39 267.64 354.80 275.44 C 354.09 275.50 352.68 275.61 351.97 275.66 C 352.07 271.40 353.51 266.77 351.47 262.76 C 350.17 259.92 346.66 259.87 343.99 259.80 C 335.20 259.93 326.41 259.85 317.62 259.61 C 317.50 256.77 317.25 253.94 316.77 251.14 Z" fill="#f9f9f9" opacity="1.00" stroke="#f9f9f9" stroke-width="0.25"/>
<path d="M 203.84 261.98 C 201.90 258.67 200.67 254.84 202.63 251.21 C 203.89 252.29 205.23 253.30 206.42 254.46 C 205.31 256.87 204.37 259.37 203.84 261.98 Z" fill="#f9f9f9" opacity="1.00" stroke="#f9f9f9" stroke-width="0.25"/>
<path d="M 307.38 255.06 C 309.62 255.56 311.84 256.10 314.09 256.58 C 314.11 258.83 313.99 261.10 314.34 263.33 C 325.41 265.04 336.65 263.43 347.77 264.41 C 348.52 268.38 348.39 272.45 348.29 276.47 C 346.35 276.51 344.42 276.52 342.49 276.57 C 342.25 274.53 341.97 272.49 341.63 270.46 C 332.02 267.36 321.76 269.15 311.85 268.77 C 310.47 272.26 309.87 276.01 310.23 279.75 C 312.76 281.38 315.50 282.67 318.37 283.62 C 313.42 289.32 310.95 296.60 308.34 303.55 C 307.63 304.89 307.98 306.33 308.49 307.67 C 309.95 307.02 311.41 306.36 312.84 305.65 C 314.13 305.96 315.43 306.29 316.73 306.62 C 315.41 309.15 314.13 311.70 312.97 314.31 C 304.34 314.71 295.67 315.98 287.39 318.48 C 287.33 324.47 291.11 330.08 292.79 335.84 C 294.39 340.64 290.92 345.25 291.58 350.07 C 293.46 363.74 298.33 376.77 299.57 390.56 C 294.69 390.88 289.83 391.49 284.95 391.81 C 284.88 389.53 284.64 387.22 284.99 384.96 C 287.63 381.79 290.47 378.79 293.36 375.84 C 289.14 367.24 288.70 357.57 285.99 348.51 C 285.11 348.56 283.36 348.65 282.49 348.69 C 283.75 356.56 285.36 364.38 287.54 372.05 C 288.58 375.00 285.11 376.80 283.80 379.06 C 282.00 376.39 280.26 373.30 277.10 372.07 C 269.06 368.88 259.99 367.69 251.60 370.28 C 251.07 372.43 250.54 374.59 250.09 376.77 C 248.76 376.74 247.43 376.71 246.11 376.69 C 246.61 372.18 247.74 367.71 249.88 363.68 C 257.23 363.17 264.77 365.79 271.96 363.46 C 276.22 361.92 277.97 357.24 278.11 353.05 C 278.45 345.13 277.68 337.20 276.59 329.37 C 278.60 329.16 280.62 328.91 282.64 328.69 C 282.50 326.87 282.38 325.04 282.27 323.22 C 281.11 323.23 279.96 323.26 278.81 323.30 C 278.18 324.80 277.53 326.28 276.85 327.76 C 275.83 324.42 275.30 320.96 275.00 317.50 C 282.33 315.66 289.53 313.30 296.91 311.65 C 298.48 311.17 300.25 310.85 301.48 309.69 C 303.33 304.55 304.38 299.13 306.52 294.09 C 307.35 292.32 307.73 290.40 307.84 288.46 C 305.35 286.42 302.69 284.59 300.35 282.39 C 303.39 273.47 306.17 264.43 307.38 255.06 Z" fill="#f9f9f9" opacity="1.00" stroke="#f9f9f9" stroke-width="0.25"/>
<path d="M 314.37 274.72 C 322.25 275.50 330.26 275.06 338.06 273.71 C 338.41 275.72 338.38 277.77 338.35 279.81 C 341.28 281.12 341.45 284.53 341.83 287.28 C 340.50 287.08 339.16 286.88 337.83 286.70 C 337.81 283.09 337.61 279.48 337.12 275.90 C 336.00 276.45 334.52 276.51 333.75 277.61 C 333.51 282.09 334.42 286.55 334.03 291.03 C 333.08 300.70 330.65 310.32 331.40 320.10 C 336.76 323.97 343.22 325.80 349.38 327.97 C 346.89 333.21 346.21 339.65 341.85 343.77 C 342.04 342.34 342.35 340.94 342.66 339.55 C 339.88 340.36 337.47 335.96 339.64 333.98 C 340.83 334.99 342.03 336.01 343.24 337.02 C 344.22 335.04 344.80 332.93 344.89 330.73 C 343.25 330.10 341.63 329.43 339.99 328.84 C 337.95 331.04 336.06 333.38 334.40 335.88 C 336.27 339.44 338.71 342.69 340.35 346.37 C 342.07 350.02 338.37 353.00 337.50 356.37 C 335.91 361.29 332.17 365.12 327.82 367.76 C 327.72 363.39 327.63 358.97 326.46 354.73 C 329.97 354.42 334.33 353.45 335.99 349.97 C 334.60 344.46 329.81 340.69 327.01 335.89 C 328.17 333.67 329.22 331.38 329.69 328.91 C 325.80 328.85 323.25 332.57 322.56 335.99 C 325.42 340.32 328.82 344.27 331.87 348.46 C 330.33 348.85 328.79 349.22 327.25 349.56 C 324.73 346.20 321.77 343.12 318.23 340.84 C 315.33 338.97 311.85 338.47 308.57 337.61 C 308.82 336.85 309.33 335.33 309.58 334.56 C 308.43 334.18 307.27 333.80 306.11 333.47 C 304.38 337.98 302.54 342.47 301.43 347.19 C 304.46 348.90 307.76 350.25 310.42 352.56 C 312.63 354.78 313.54 357.87 314.65 360.72 C 313.29 361.10 311.92 361.41 310.55 361.73 C 310.11 359.84 311.13 356.96 308.83 356.11 C 304.96 354.43 300.62 355.32 296.56 355.50 C 295.64 353.43 294.56 351.22 295.14 348.90 C 296.69 342.00 299.49 335.39 300.33 328.33 C 304.23 328.72 307.91 330.38 311.82 330.60 C 317.20 329.71 320.74 325.11 324.89 322.00 C 324.74 321.28 324.44 319.83 324.29 319.11 C 318.37 320.38 315.28 327.07 308.94 327.66 C 308.54 327.13 307.74 326.08 307.34 325.56 C 303.75 325.17 300.11 324.86 296.54 325.60 C 296.57 328.10 296.53 330.62 296.16 333.11 C 294.72 329.29 293.14 325.52 291.89 321.64 C 299.04 320.12 306.34 319.51 313.53 318.26 C 316.36 317.88 317.72 315.10 318.83 312.81 C 323.57 302.49 327.88 291.37 326.87 279.80 C 322.38 279.72 317.43 280.81 313.45 278.15 C 313.74 277.00 314.00 275.84 314.37 274.72 Z" fill="#f9f9f9" opacity="1.00" stroke="#f9f9f9" stroke-width="0.25"/>
<path d="M 449.82 273.49 C 451.86 280.47 451.90 287.82 451.75 295.04 C 451.69 316.50 442.24 337.92 426.05 352.09 C 429.52 345.16 432.92 338.18 436.24 331.18 C 442.34 316.42 446.78 300.86 448.31 284.92 C 448.70 281.09 448.93 277.24 449.82 273.49 Z" fill="#f9f9f9" opacity="1.00" stroke="#f9f9f9" stroke-width="0.25"/>
<path d="M 263.80 280.71 C 267.06 279.19 269.34 274.96 273.43 276.43 C 272.22 280.54 270.89 284.64 270.28 288.89 C 269.80 291.57 269.10 294.94 266.16 295.90 C 261.69 297.54 256.86 297.51 252.17 297.58 C 252.22 296.13 252.28 294.68 252.35 293.24 C 258.21 292.46 264.45 292.49 269.65 289.26 C 269.66 287.13 269.58 285.00 269.27 282.90 C 267.98 284.34 267.01 286.11 265.48 287.33 C 261.11 288.98 256.30 288.58 251.73 289.23 C 251.66 287.00 251.61 284.77 251.56 282.55 C 255.67 282.31 259.94 282.34 263.80 280.71 Z" fill="#f9f9f9" opacity="1.00" stroke="#f9f9f9" stroke-width="0.25"/>
<path d="M 175.33 283.19 C 177.67 283.91 180.32 284.54 181.60 286.86 C 180.95 288.78 180.13 290.64 179.31 292.49 C 178.46 292.02 177.61 291.55 176.77 291.10 C 175.87 288.55 175.16 285.91 175.33 283.19 Z" fill="#395144" opacity="1.00" stroke="#395144" stroke-width="0.25"/>
<path d="M 321.19 287.89 C 320.66 286.85 321.65 284.87 322.95 285.62 C 324.66 286.75 322.44 290.09 321.19 287.89 Z" fill="#f9f9f9" opacity="1.00" stroke="#f9f9f9" stroke-width="0.25"/>
<path d="M 201.06 289.79 C 207.21 289.73 213.25 287.65 219.42 288.61 C 218.99 289.80 218.56 290.99 218.13 292.18 C 208.82 294.91 198.30 295.08 189.43 290.80 C 193.12 289.24 197.19 290.15 201.06 289.79 Z" fill="#f9f9f9" opacity="1.00" stroke="#f9f9f9" stroke-width="0.25"/>
<path d="M 356.18 290.30 C 359.28 290.99 362.39 291.64 365.55 292.05 C 366.12 299.92 365.10 307.79 363.25 315.43 C 357.64 313.79 351.92 312.53 346.35 310.80 C 346.26 308.01 346.58 305.24 346.73 302.46 C 350.00 302.55 353.25 302.16 356.39 301.19 C 357.01 297.57 356.50 293.92 356.18 290.30 Z" fill="#f9f9f9" opacity="1.00" stroke="#f9f9f9" stroke-width="0.25"/>
<path d="M 317.67 292.53 C 319.14 292.10 320.63 291.99 322.15 292.19 C 321.16 295.51 320.50 298.98 318.97 302.12 C 317.11 303.12 314.81 301.35 312.85 301.27 C 314.12 299.33 315.44 297.42 316.77 295.52 C 317.71 295.52 319.59 295.52 320.53 295.53 C 319.62 294.48 318.67 293.48 317.67 292.53 Z" fill="#f9f9f9" opacity="1.00" stroke="#f9f9f9" stroke-width="0.25"/>
<path d="M 31.54 313.52 C 39.24 310.81 49.13 309.51 55.71 315.42 C 60.42 319.59 60.75 326.31 62.47 331.96 C 64.74 341.41 70.69 349.26 74.96 357.83 C 78.40 364.39 80.42 371.86 85.76 377.27 C 91.54 383.17 98.41 387.91 103.95 394.07 C 107.87 397.91 111.12 403.21 116.84 404.49 C 125.13 406.39 133.87 404.15 142.11 406.55 C 151.16 408.89 158.08 416.51 161.21 425.11 C 164.57 434.09 162.54 443.75 162.49 453.05 C 161.81 462.57 163.23 472.55 168.22 480.81 C 172.03 485.97 176.95 490.45 182.78 493.21 C 191.30 497.05 202.07 496.34 209.46 490.36 C 214.44 486.66 217.85 480.96 218.82 474.83 C 219.76 470.23 219.09 464.84 215.54 461.47 C 211.73 457.89 206.09 457.03 201.07 457.63 C 197.95 458.57 194.90 460.05 191.53 459.55 C 191.16 457.41 190.88 455.25 190.61 453.10 C 187.04 454.76 183.49 457.78 183.41 462.04 C 182.93 466.33 187.87 470.10 191.88 468.54 C 193.45 467.62 194.73 466.28 196.16 465.17 C 200.18 468.92 198.39 476.13 193.03 477.49 C 184.83 478.77 176.12 472.36 174.98 464.09 C 173.36 453.76 183.75 443.29 194.14 445.32 C 198.06 445.97 201.10 448.91 204.96 449.75 C 209.59 450.92 214.83 450.99 218.63 454.25 C 223.49 457.86 225.68 464.04 225.73 469.94 C 226.63 479.88 222.52 490.38 214.38 496.35 C 208.59 500.79 201.06 502.05 193.93 501.78 C 183.62 501.77 173.35 497.28 166.52 489.53 C 160.08 482.89 156.81 473.69 156.21 464.57 C 154.84 453.44 157.68 442.16 155.45 431.09 C 153.85 424.81 149.55 419.34 144.19 415.81 C 134.45 410.99 123.15 414.77 112.95 412.02 C 109.24 410.75 106.58 407.66 103.89 404.97 C 100.72 401.51 97.19 398.41 93.89 395.08 C 87.55 388.77 80.22 383.42 74.67 376.35 C 70.35 370.84 68.48 364.01 65.56 357.77 C 62.36 350.48 58.39 343.53 55.95 335.93 C 54.42 331.39 53.62 326.38 50.48 322.59 C 48.02 319.46 43.61 319.50 40.01 319.79 C 31.61 320.84 23.00 325.31 19.09 333.12 C 14.21 342.69 16.23 355.54 24.46 362.66 C 27.10 365.18 31.89 366.87 30.70 371.42 C 25.69 374.56 20.81 370.08 17.56 366.54 C 9.26 358.04 7.82 344.89 10.70 333.80 C 14.21 324.35 21.93 316.66 31.54 313.52 Z" fill="#f9f9f9" opacity="1.00" stroke="#f9f9f9" stroke-width="0.25"/>
<path d="M 411.83 333.94 C 419.09 329.75 425.15 323.89 431.84 318.90 C 428.90 323.18 425.07 326.73 421.97 330.88 C 417.11 336.68 412.91 343.42 406.10 347.17 C 398.18 351.50 389.00 353.22 380.02 352.89 C 374.48 352.63 369.00 353.61 363.48 353.79 C 363.23 350.46 364.17 347.27 365.47 344.25 C 368.74 340.57 373.87 341.21 378.28 341.56 C 389.86 342.65 401.88 340.05 411.83 333.94 Z" fill="#f9f9f9" opacity="1.00" stroke="#f9f9f9" stroke-width="0.25"/>
<path d="M 180.53 323.77 C 185.90 324.60 191.21 325.81 196.42 327.36 C 195.17 330.80 193.96 334.29 191.91 337.36 C 189.70 337.73 187.50 338.13 185.29 338.47 C 185.77 336.34 186.29 334.22 186.74 332.09 C 184.00 332.25 181.28 332.57 178.56 332.89 C 179.36 329.88 179.97 326.83 180.53 323.77 Z" fill="#f9f9f9" opacity="1.00" stroke="#f9f9f9" stroke-width="0.25"/>
<path d="M 460.96 332.92 C 467.49 327.10 476.06 322.89 484.98 323.36 C 494.73 323.25 503.57 331.33 504.79 340.92 C 506.07 349.90 504.10 360.63 496.21 366.14 C 489.13 371.71 476.91 370.88 472.43 362.45 C 468.67 366.43 464.98 370.65 462.76 375.72 C 460.51 380.76 458.60 385.97 455.79 390.75 C 453.26 395.14 450.86 399.85 450.75 405.04 C 450.31 411.48 454.34 418.43 460.84 420.00 C 467.94 421.96 477.24 419.40 479.88 411.89 C 481.13 406.91 480.09 400.33 475.17 397.67 C 471.77 395.55 467.54 396.17 463.98 397.53 C 463.78 398.57 462.77 399.64 463.35 400.72 C 465.61 402.17 468.08 403.29 470.30 404.82 C 470.65 405.90 471.01 406.99 471.39 408.07 C 471.15 408.73 470.68 410.04 470.44 410.69 C 463.64 412.97 455.89 407.10 456.32 399.94 C 456.90 393.24 463.16 387.31 469.99 387.54 C 480.20 387.38 489.82 395.78 490.49 406.07 C 491.26 414.95 485.87 423.96 477.64 427.40 C 473.97 428.97 469.89 428.77 465.98 428.82 C 457.09 429.01 448.59 423.33 444.84 415.36 C 442.65 410.17 443.15 404.29 444.44 398.95 C 445.81 393.10 449.52 388.24 451.78 382.75 C 454.66 376.20 455.68 368.88 459.66 362.82 C 462.25 358.29 466.16 354.73 470.15 351.47 C 473.93 349.64 478.19 352.70 480.61 355.54 C 482.19 356.92 480.73 358.92 480.53 360.60 C 483.90 361.00 487.56 361.29 490.59 359.43 C 496.42 356.15 498.74 348.67 497.31 342.39 C 495.92 338.12 492.65 334.20 488.16 333.08 C 481.84 331.19 475.47 333.97 469.99 336.94 C 463.82 340.67 459.20 346.43 455.27 352.36 C 451.61 357.88 447.38 362.97 443.50 368.32 C 439.39 373.93 433.69 378.04 428.59 382.68 C 423.01 387.96 419.37 394.82 415.08 401.11 C 409.51 409.06 401.04 414.58 392.01 417.88 C 383.33 421.05 375.01 425.81 368.83 432.79 C 364.15 438.10 363.35 445.44 360.06 451.51 C 357.96 451.46 355.19 451.31 354.47 448.90 C 353.51 444.60 355.75 440.45 357.31 436.58 C 361.50 426.98 369.68 419.79 378.81 415.00 C 386.08 410.99 394.31 408.80 401.02 403.80 C 409.26 397.00 414.49 387.49 421.44 379.52 C 425.96 374.03 431.34 369.37 436.67 364.69 C 446.82 355.73 450.57 341.67 460.96 332.92 Z" fill="#f9f9f9" opacity="1.00" stroke="#f9f9f9" stroke-width="0.25"/>
<path d="M 33.58 328.72 C 36.09 327.25 39.22 328.65 38.85 331.76 C 34.71 335.80 29.97 340.74 30.56 347.00 C 30.53 352.54 33.26 358.12 38.07 361.00 C 41.77 363.21 46.50 364.33 48.93 368.20 C 51.27 372.05 52.11 376.78 51.29 381.21 C 50.66 383.88 47.19 384.33 45.41 382.56 C 41.65 379.23 42.49 373.64 40.51 369.46 C 37.29 367.62 33.70 366.46 30.60 364.37 C 25.45 358.13 21.81 349.71 23.81 341.53 C 24.96 336.06 29.03 331.71 33.58 328.72 Z" fill="#f9f9f9" opacity="1.00" stroke="#f9f9f9" stroke-width="0.25"/>
<path d="M 188.76 328.50 C 189.62 328.66 190.47 328.85 191.32 329.05 C 191.19 330.25 190.86 331.42 190.60 332.60 C 189.25 333.02 187.90 333.42 186.55 333.81 C 187.24 332.02 187.99 330.26 188.76 328.50 Z" fill="#395144" opacity="1.00" stroke="#395144" stroke-width="0.25"/>
<path d="M 41.63 338.87 C 43.59 338.51 45.89 336.57 47.60 338.40 C 49.51 341.63 50.48 345.36 52.69 348.45 C 56.70 354.67 61.03 362.01 58.41 369.65 C 57.10 369.62 55.79 369.59 54.47 369.56 C 52.46 365.81 52.39 361.36 50.15 357.73 C 47.51 353.15 44.22 348.98 41.81 344.28 C 40.81 342.61 41.50 340.66 41.63 338.87 Z" fill="#f9f9f9" opacity="1.00" stroke="#f9f9f9" stroke-width="0.25"/>
<path d="M 305.58 345.01 C 306.25 343.45 306.91 341.90 307.61 340.37 C 312.32 342.32 317.35 344.37 320.46 348.65 C 322.38 350.70 322.59 353.54 323.09 356.16 C 323.83 360.32 323.99 364.56 324.28 368.77 C 320.78 370.26 317.05 371.04 313.34 371.81 C 312.83 369.69 312.35 367.56 311.86 365.45 C 314.07 364.82 316.96 365.16 318.45 363.05 C 318.67 355.08 313.28 347.36 305.58 345.01 Z" fill="#f9f9f9" opacity="1.00" stroke="#f9f9f9" stroke-width="0.25"/>
<path d="M 248.38 343.06 C 251.00 342.77 253.63 342.52 256.27 342.28 C 256.36 344.20 256.39 346.13 256.36 348.06 C 254.61 347.83 252.83 347.72 251.12 347.29 C 250.07 345.97 249.24 344.49 248.38 343.06 Z" fill="#f9f9f9" opacity="1.00" stroke="#f9f9f9" stroke-width="0.25"/>
<path d="M 478.04 344.21 C 478.52 343.55 479.47 342.24 479.95 341.59 C 483.25 341.76 487.83 340.69 489.81 344.15 C 491.61 347.00 489.10 349.87 487.11 351.76 C 486.40 350.49 485.72 349.22 485.04 347.95 C 482.74 346.63 480.39 345.41 478.04 344.21 Z" fill="#f9f9f9" opacity="1.00" stroke="#f9f9f9" stroke-width="0.25"/>
<path d="M 260.26 343.56 C 261.90 343.66 263.55 343.78 265.19 343.94 C 265.18 345.51 265.17 347.08 265.17 348.66 C 263.53 348.67 261.89 348.66 260.26 348.64 C 260.25 346.94 260.24 345.25 260.26 343.56 Z" fill="#f9f9f9" opacity="1.00" stroke="#f9f9f9" stroke-width="0.25"/>
<path d="M 254.45 373.59 C 261.44 372.76 268.64 373.60 275.19 376.17 C 278.10 377.26 280.19 379.99 280.46 383.10 C 281.14 388.50 281.35 393.96 281.20 399.41 C 272.17 399.79 263.13 400.21 254.09 400.12 C 254.13 397.26 254.19 394.40 254.27 391.55 C 256.07 391.53 257.88 391.51 259.69 391.49 C 259.36 393.42 258.97 395.34 258.80 397.29 C 259.99 398.89 262.28 397.96 263.98 398.22 C 266.76 398.01 270.92 398.48 271.93 395.09 C 273.66 390.56 275.09 383.78 270.55 380.45 C 265.44 377.29 259.19 377.10 253.37 376.74 C 253.72 375.68 254.09 374.64 254.45 373.59 Z" fill="#f9f9f9" opacity="1.00" stroke="#f9f9f9" stroke-width="0.25"/>
<path d="M 63.01 381.94 C 62.13 379.13 61.99 376.15 62.60 373.28 C 64.11 373.70 65.91 373.71 67.07 374.92 C 72.85 385.28 74.36 397.40 73.74 409.10 C 73.14 414.71 70.18 420.45 64.90 422.95 C 55.30 427.78 43.79 427.01 34.01 423.13 C 29.83 421.70 26.50 418.24 24.88 414.18 C 22.02 407.14 22.86 398.70 26.93 392.30 C 32.12 383.93 45.31 383.11 52.15 389.80 C 55.92 393.06 58.78 397.38 60.56 402.00 C 60.64 404.03 61.12 406.90 59.00 408.06 C 57.20 409.41 54.92 408.95 52.92 408.44 C 52.24 404.94 52.02 401.10 49.70 398.22 C 46.52 393.90 39.20 393.37 35.77 397.68 C 29.37 404.87 34.05 418.63 43.85 419.68 C 51.75 421.03 61.19 418.42 65.44 411.15 C 67.47 408.11 66.77 404.27 66.43 400.86 C 65.43 394.53 64.81 388.11 63.01 381.94 Z" fill="#f9f9f9" opacity="1.00" stroke="#f9f9f9" stroke-width="0.25"/>
<path d="M 431.80 392.07 C 432.67 392.09 434.42 392.14 435.29 392.16 C 436.66 394.90 438.01 397.84 437.63 400.99 C 437.10 408.62 431.90 414.73 427.34 420.46 C 421.87 426.63 416.89 433.31 410.51 438.59 C 405.46 442.91 399.80 446.45 394.80 450.82 C 392.64 452.55 390.56 454.59 387.86 455.42 C 383.41 456.58 377.88 456.06 374.98 452.06 C 371.57 448.47 371.90 443.00 373.82 438.77 C 375.96 437.88 378.82 436.36 380.91 438.07 C 382.50 440.64 382.82 443.80 383.88 446.61 C 388.57 445.26 392.30 442.01 395.97 438.95 C 403.32 432.57 411.03 426.64 418.50 420.42 C 422.48 417.02 425.44 412.58 427.82 407.95 C 430.54 402.95 427.80 396.53 431.80 392.07 Z" fill="#f9f9f9" opacity="1.00" stroke="#f9f9f9" stroke-width="0.25"/>
<path d="M 285.70 395.84 C 291.66 395.64 297.63 395.51 303.55 394.70 C 303.61 395.13 303.74 396.00 303.80 396.43 C 297.62 397.34 291.41 398.11 285.18 398.63 C 284.99 398.19 284.63 397.30 284.44 396.86 C 284.76 396.60 285.39 396.09 285.70 395.84 Z" fill="#f9f9f9" opacity="1.00" stroke="#f9f9f9" stroke-width="0.25"/>
<path d="M 76.86 401.01 C 75.92 399.08 77.13 397.16 77.73 395.36 C 81.67 394.79 84.08 398.07 86.12 400.86 C 88.96 404.67 92.21 408.13 95.21 411.80 C 99.34 417.01 104.81 421.03 108.51 426.61 C 112.79 432.07 115.32 438.81 120.30 443.71 C 123.91 445.49 128.13 445.64 132.08 445.30 C 136.11 444.78 138.14 439.96 136.78 436.40 C 135.68 432.22 131.66 430.03 128.82 427.14 C 126.95 425.88 127.17 423.64 127.57 421.72 C 129.63 421.39 131.78 420.16 133.82 421.17 C 142.09 424.70 146.89 434.36 144.82 443.11 C 143.72 447.40 140.29 451.04 136.10 452.45 C 131.23 453.48 126.45 451.63 121.95 449.98 C 117.84 448.43 113.33 446.99 110.53 443.36 C 106.36 438.14 103.65 431.86 98.98 427.01 C 93.38 421.23 87.89 415.34 82.65 409.24 C 80.58 406.61 78.23 404.10 76.86 401.01 Z" fill="#f9f9f9" opacity="1.00" stroke="#f9f9f9" stroke-width="0.25"/>
<path d="M 41.98 402.09 C 43.12 399.83 45.74 400.03 47.88 400.04 C 48.26 400.48 49.02 401.36 49.40 401.80 C 49.45 402.70 49.55 404.51 49.60 405.42 C 47.67 407.07 45.96 410.20 42.98 409.30 C 41.63 407.18 41.20 404.50 41.98 402.09 Z" fill="#f9f9f9" opacity="1.00" stroke="#f9f9f9" stroke-width="0.25"/>
<path d="M 308.81 410.17 C 318.45 408.84 328.20 407.28 337.26 403.61 C 338.65 404.41 339.76 405.50 339.71 407.24 C 335.87 409.67 331.28 410.29 327.02 411.63 C 306.87 417.32 285.78 417.55 265.01 417.83 C 248.34 418.22 231.59 418.84 215.00 416.77 C 205.23 415.89 195.40 414.28 186.21 410.79 C 184.07 410.41 184.50 408.10 184.16 406.52 C 202.50 410.53 221.17 413.34 239.99 413.34 C 262.99 414.37 285.97 412.66 308.81 410.17 Z" fill="#f9f9f9" opacity="1.00" stroke="#f9f9f9" stroke-width="0.25"/>
<path d="M 334.61 412.89 C 336.34 412.53 338.40 411.62 339.98 412.91 C 343.16 415.26 345.82 418.46 347.44 422.07 C 349.05 427.95 342.96 431.67 338.45 433.71 C 325.64 439.07 311.66 440.66 297.97 442.18 C 286.33 442.87 274.67 442.91 263.01 443.16 C 247.71 442.55 232.35 443.03 217.07 441.74 C 207.77 441.30 198.44 439.76 189.65 436.64 C 184.97 434.58 179.45 432.17 177.48 427.06 C 175.91 421.20 182.40 417.87 185.92 414.40 C 200.23 420.06 215.80 420.59 230.99 420.82 C 239.31 421.26 247.65 421.35 255.97 420.96 C 268.63 420.56 281.30 420.92 293.95 420.53 C 307.75 419.63 321.33 416.66 334.61 412.89 Z" fill="#f9f9f9" opacity="1.00" stroke="#f9f9f9" stroke-width="0.25"/>
<path d="M 431.16 428.17 C 433.93 424.77 437.29 421.91 440.82 419.32 C 442.48 419.53 444.34 419.51 445.52 420.93 C 446.02 422.57 445.75 424.31 445.66 426.00 C 438.71 429.64 433.33 435.48 428.35 441.40 C 422.30 448.14 416.70 455.42 412.65 463.57 C 410.50 467.72 408.81 472.20 405.62 475.72 C 409.49 477.92 410.02 483.30 407.80 486.81 C 406.01 488.50 403.33 487.65 401.39 486.71 C 401.52 484.66 401.69 482.63 401.79 480.60 C 400.42 479.86 399.05 479.12 397.69 478.42 C 395.03 481.17 392.70 485.11 393.96 489.05 C 395.05 493.78 399.42 496.96 403.95 498.06 C 406.92 499.23 409.56 496.56 411.24 494.42 C 415.87 487.13 412.71 477.95 415.42 470.16 C 416.24 467.98 418.58 469.19 420.23 469.52 C 420.51 470.16 421.07 471.44 421.34 472.08 C 421.27 478.53 422.00 485.16 420.27 491.45 C 418.32 496.23 415.15 500.85 410.64 503.51 C 403.10 505.82 393.73 503.73 389.05 497.01 C 384.17 490.48 385.69 480.05 392.29 475.21 C 395.63 472.56 400.04 471.21 402.60 467.63 C 405.97 462.87 408.36 457.47 411.90 452.82 C 418.25 444.56 424.50 436.20 431.16 428.17 Z" fill="#f9f9f9" opacity="1.00" stroke="#f9f9f9" stroke-width="0.25"/>
<path d="M 335.41 427.38 C 336.77 425.34 338.21 422.68 341.10 423.50 C 340.94 424.27 340.62 425.83 340.46 426.61 C 331.18 433.98 318.98 435.46 307.62 436.97 C 289.80 439.06 271.83 438.93 253.92 439.33 C 243.94 439.36 233.95 439.18 223.98 438.56 C 213.45 438.33 202.86 436.82 192.98 433.04 C 189.60 431.63 186.17 429.95 183.70 427.17 C 182.57 426.04 183.29 424.01 184.86 423.78 C 187.59 425.01 188.87 428.09 191.59 429.36 C 202.21 434.86 214.44 434.92 226.04 436.33 C 249.65 437.77 273.36 437.27 296.94 435.56 C 309.98 434.24 323.44 433.19 335.41 427.38 Z" fill="#395144" opacity="1.00" stroke="#395144" stroke-width="0.25"/>
<path d="M 77.85 433.01 C 76.55 429.67 79.28 425.15 83.11 425.73 C 86.51 427.09 88.49 430.47 89.61 433.80 C 92.61 441.79 99.45 448.76 98.69 457.82 C 97.42 457.74 96.15 457.66 94.88 457.56 C 93.37 453.00 91.58 448.37 88.10 444.94 C 84.75 440.91 79.73 438.11 77.85 433.01 Z" fill="#f9f9f9" opacity="1.00" stroke="#f9f9f9" stroke-width="0.25"/>
<path d="M 20.23 435.41 C 23.37 430.05 30.24 428.43 36.03 429.05 C 44.62 429.96 53.43 432.24 60.44 437.50 C 68.97 443.53 74.23 453.08 77.00 462.97 C 77.48 464.70 77.34 466.52 77.33 468.30 C 75.82 468.45 74.31 468.60 72.80 468.69 C 69.80 462.82 68.25 456.23 64.31 450.85 C 59.25 443.35 50.68 439.15 42.10 437.11 C 37.13 436.15 31.25 435.80 27.14 439.30 C 24.96 441.65 24.07 444.87 23.24 447.90 C 21.10 456.37 17.74 464.53 13.40 472.12 C 12.41 473.72 11.10 475.58 9.00 475.59 C 6.93 475.95 4.99 474.06 5.71 471.98 C 7.60 466.31 11.65 461.63 13.44 455.90 C 16.05 449.19 16.40 441.63 20.23 435.41 Z" fill="#f9f9f9" opacity="1.00" stroke="#f9f9f9" stroke-width="0.25"/>
<path d="M 453.47 436.78 C 467.00 432.21 482.20 434.72 494.47 441.67 C 498.55 444.08 501.81 448.22 502.32 453.03 C 503.21 459.92 502.35 467.11 499.49 473.46 C 498.25 476.05 494.87 477.47 492.63 475.15 C 493.32 468.99 497.24 463.22 495.78 456.85 C 494.76 450.69 489.32 446.37 483.60 444.68 C 474.70 441.90 464.75 440.89 455.79 443.92 C 449.23 446.07 445.47 452.69 444.35 459.16 C 442.96 465.56 443.93 472.65 447.82 478.02 C 451.08 482.91 457.09 486.23 463.04 485.03 C 468.62 483.53 473.93 477.90 472.15 471.79 C 470.50 471.27 468.85 470.34 467.08 470.71 C 464.09 472.34 465.58 477.53 461.74 478.14 C 458.69 478.51 457.16 475.67 456.14 473.30 C 460.51 470.41 463.65 465.57 469.02 464.35 C 475.60 462.05 482.13 469.64 480.32 475.93 C 478.53 482.59 474.76 489.83 467.64 491.89 C 457.55 494.62 445.32 489.97 440.84 480.21 C 437.11 473.03 436.81 464.72 437.31 456.81 C 438.44 447.81 444.83 439.70 453.47 436.78 Z" fill="#f9f9f9" opacity="1.00" stroke="#f9f9f9" stroke-width="0.25"/>
<path d="M 278.99 449.60 C 297.54 452.24 315.83 446.70 333.96 443.60 C 339.14 442.69 344.71 443.74 348.88 447.06 C 356.87 453.22 360.24 463.44 361.54 473.08 C 362.45 481.07 362.17 490.14 356.55 496.48 C 348.98 505.00 336.99 507.76 326.01 507.51 C 314.50 507.85 303.01 504.76 293.16 498.86 C 290.37 497.44 291.46 494.03 291.61 491.57 C 293.20 491.51 294.97 490.78 296.42 491.81 C 300.12 494.09 303.63 496.89 307.92 498.01 C 320.65 501.24 335.06 502.61 347.02 496.10 C 353.17 492.85 355.49 485.51 355.30 478.94 C 354.99 471.30 352.98 463.56 348.71 457.16 C 346.99 454.43 344.07 452.86 341.20 451.61 C 328.21 451.12 315.33 454.02 302.87 457.42 C 291.24 459.88 279.63 456.35 267.98 456.33 C 262.61 456.08 257.26 455.47 251.98 454.51 C 252.12 452.83 252.29 451.15 252.46 449.48 C 255.15 448.36 258.07 447.99 260.97 448.38 C 266.95 449.08 272.99 449.06 278.99 449.60 Z" fill="#f9f9f9" opacity="1.00" stroke="#f9f9f9" stroke-width="0.25"/>
<path d="M 36.12 444.97 C 40.79 443.66 45.73 445.33 50.17 446.89 C 55.41 449.12 61.37 451.54 63.94 457.05 C 65.89 461.40 68.06 466.04 67.50 470.94 C 66.75 476.57 64.58 482.36 60.03 486.02 C 55.38 490.01 49.18 491.08 43.49 492.81 C 40.12 493.51 38.75 498.36 34.88 497.32 C 31.05 496.20 31.60 490.45 34.42 488.49 C 40.70 484.57 48.79 485.21 54.92 480.99 C 61.24 476.48 62.30 466.56 57.55 460.55 C 51.38 453.32 41.14 450.45 31.95 452.20 C 29.25 449.58 33.74 446.17 36.12 444.97 Z" fill="#f9f9f9" opacity="1.00" stroke="#f9f9f9" stroke-width="0.25"/>
<path d="M 458.69 450.77 C 467.42 447.33 476.37 452.13 484.11 455.92 C 486.80 457.00 488.23 459.67 487.90 462.52 C 485.65 462.76 483.24 463.19 481.17 462.02 C 474.79 458.80 467.84 456.31 460.63 456.10 C 460.17 458.57 459.76 461.07 459.35 463.56 C 457.23 465.39 454.55 465.88 452.13 464.27 C 451.43 458.95 454.38 453.71 458.69 450.77 Z" fill="#f9f9f9" opacity="1.00" stroke="#f9f9f9" stroke-width="0.25"/>
<path d="M 106.46 454.60 C 113.47 454.42 120.16 456.79 126.99 457.94 C 134.02 459.58 141.75 460.66 147.32 465.65 C 149.83 468.43 153.07 472.40 151.13 476.31 C 147.60 477.56 144.98 474.30 142.40 472.49 C 137.57 468.32 130.93 467.95 125.14 465.91 C 118.78 463.72 112.42 461.54 106.09 459.26 C 106.17 457.70 106.28 456.14 106.46 454.60 Z" fill="#f9f9f9" opacity="1.00" stroke="#f9f9f9" stroke-width="0.25"/>
<path d="M 426.86 459.34 C 428.56 459.42 431.83 459.48 431.44 461.94 C 428.92 471.64 433.61 481.33 432.14 491.10 C 431.82 493.27 430.64 495.20 429.13 496.75 C 427.65 495.86 427.76 493.89 427.29 492.43 C 425.88 484.70 425.28 476.84 424.85 468.99 C 424.67 465.65 425.64 462.41 426.86 459.34 Z" fill="#f9f9f9" opacity="1.00" stroke="#f9f9f9" stroke-width="0.25"/>
<path d="M 336.27 461.14 C 338.76 459.90 341.50 461.84 343.11 463.70 C 346.54 468.18 348.81 474.50 346.19 479.90 C 342.17 491.36 326.46 496.83 316.44 489.72 C 308.32 484.92 304.96 474.33 307.33 465.43 C 308.77 465.22 311.94 463.15 311.79 466.02 C 311.99 471.20 312.13 476.98 315.98 480.97 C 321.72 488.03 333.95 487.06 339.02 479.73 C 341.39 475.75 340.58 470.60 338.24 466.79 C 337.38 464.99 335.78 463.28 336.27 461.14 Z" fill="#f9f9f9" opacity="1.00" stroke="#f9f9f9" stroke-width="0.25"/>
<path d="M 244.47 462.72 C 250.76 460.36 257.62 462.15 264.15 461.86 C 267.47 461.81 268.41 465.53 270.79 467.10 C 276.53 470.85 278.15 478.52 277.34 484.93 C 275.83 495.32 265.09 502.44 254.97 501.81 C 248.28 501.76 241.85 498.18 238.00 492.76 C 232.04 483.22 234.00 468.27 244.47 462.72 Z" fill="#f9f9f9" opacity="1.00" stroke="#f9f9f9" stroke-width="0.25"/>
<path d="M 324.20 462.19 C 324.64 462.27 325.52 462.44 325.97 462.52 C 327.96 464.18 330.21 465.53 332.11 467.31 C 334.16 469.59 332.78 472.66 332.32 475.26 C 330.26 475.64 327.98 477.16 326.09 475.57 C 321.23 472.92 321.25 466.28 324.20 462.19 Z" fill="#f9f9f9" opacity="1.00" stroke="#f9f9f9" stroke-width="0.25"/>
<path d="M 34.08 466.04 C 38.04 462.94 43.31 462.70 48.11 462.27 C 50.45 463.60 50.99 465.99 50.75 468.50 C 45.55 470.67 38.43 469.59 35.05 474.98 C 30.97 479.80 30.03 486.11 28.39 491.99 C 27.38 495.16 25.57 498.69 21.98 499.41 C 16.31 500.29 10.36 498.60 5.61 495.46 C 2.69 490.24 2.45 483.42 5.72 478.30 C 8.68 479.60 11.56 481.47 14.91 481.51 C 17.62 481.48 20.09 482.53 22.56 483.51 C 25.06 476.96 28.40 470.39 34.08 466.04 Z" fill="#f9f9f9" opacity="1.00" stroke="#f9f9f9" stroke-width="0.25"/>
<path d="M 102.93 464.91 C 106.67 463.34 111.15 465.27 113.35 468.50 C 118.01 475.40 119.01 485.10 114.33 492.25 C 111.75 496.71 107.24 500.07 102.08 500.76 C 94.79 502.15 86.03 501.12 81.20 494.86 C 75.82 488.68 75.77 477.80 82.37 472.51 C 85.95 472.65 89.44 471.76 92.98 471.64 C 97.72 473.21 101.68 478.03 100.35 483.23 C 98.94 483.42 97.53 483.59 96.12 483.76 C 94.72 482.01 93.70 480.00 92.88 477.93 C 89.97 479.27 87.08 481.06 85.42 483.91 C 85.05 487.10 86.66 490.12 88.59 492.54 C 91.43 495.59 96.08 494.87 99.82 494.72 C 107.74 493.61 111.78 483.70 108.19 476.91 C 106.54 473.07 102.28 471.81 99.29 469.31 C 100.37 467.77 101.00 465.60 102.93 464.91 Z" fill="#f9f9f9" opacity="1.00" stroke="#f9f9f9" stroke-width="0.25"/>
<path d="M 367.46 465.13 C 367.83 462.63 371.21 463.28 372.95 463.83 C 376.49 465.10 380.32 466.26 383.12 468.90 C 384.45 470.19 383.51 472.15 383.52 473.76 C 378.77 474.06 374.47 471.65 370.39 469.54 C 368.78 468.70 366.71 467.24 367.46 465.13 Z" fill="#f9f9f9" opacity="1.00" stroke="#f9f9f9" stroke-width="0.25"/>
<path d="M 248.66 466.82 C 253.73 465.66 258.99 466.71 264.05 467.46 C 266.35 471.58 268.09 476.29 267.27 481.09 C 265.87 488.22 257.04 491.62 250.61 489.66 C 246.58 488.68 244.20 484.76 243.49 480.93 C 242.63 475.68 245.64 470.81 248.66 466.82 Z" fill="#395144" opacity="1.00" stroke="#395144" stroke-width="0.25"/>
<path d="M 209.42 473.42 C 210.46 472.74 212.81 473.21 212.34 474.87 C 212.08 479.19 210.74 483.65 207.98 487.05 C 203.56 492.07 196.23 493.04 189.94 492.14 C 185.49 491.49 181.43 488.88 179.21 484.94 C 180.01 484.11 180.83 483.30 181.67 482.50 C 187.83 484.31 194.57 487.26 200.82 484.06 C 204.21 480.98 206.69 477.05 209.42 473.42 Z" fill="#f9f9f9" opacity="1.00" stroke="#f9f9f9" stroke-width="0.25"/>
<path d="M 252.32 473.56 C 254.76 472.67 257.39 471.97 259.67 473.68 C 259.32 475.35 258.93 477.03 258.52 478.70 C 256.71 479.63 254.79 480.34 252.78 480.65 C 252.10 478.33 251.33 475.90 252.32 473.56 Z" fill="#f9f9f9" opacity="1.00" stroke="#f9f9f9" stroke-width="0.25"/>
<path d="M 480.42 481.33 C 481.16 479.07 482.37 477.07 484.93 476.67 C 484.74 478.97 484.42 481.26 484.07 483.55 C 482.40 483.62 481.23 482.69 480.42 481.33 Z" fill="#f9f9f9" opacity="1.00" stroke="#f9f9f9" stroke-width="0.25"/>
<path d="M 485.70 487.62 C 487.53 484.84 487.85 481.56 487.73 478.32 C 492.08 478.70 496.56 478.09 500.82 479.10 C 505.73 480.96 505.47 487.27 504.21 491.43 C 501.51 497.27 494.50 500.14 488.32 499.68 C 485.73 496.36 482.96 491.69 485.70 487.62 Z" fill="#f9f9f9" opacity="1.00" stroke="#f9f9f9" stroke-width="0.25"/>
</svg>